<svg width="44" height="44" viewBox="0 0 44 44" fill="none" xmlns="http://www.w3.org/2000/svg">
<g clip-path="url(#clip0_23_19)">
<path d="M3.66666 22H5.49999" stroke="#C2F13C" stroke-width="2.75" stroke-linecap="round" stroke-linejoin="round"/>
<path d="M11 14.6667H7.33333C6.8471 14.6667 6.38079 14.8598 6.03697 15.2037C5.69315 15.5475 5.5 16.0138 5.5 16.5V27.5C5.5 27.9863 5.69315 28.4526 6.03697 28.7964C6.38079 29.1402 6.8471 29.3334 7.33333 29.3334H11" stroke="#C2F13C" stroke-width="2.75" stroke-linecap="round" stroke-linejoin="round"/>
<path d="M11 12.8333V31.1667C11 31.6529 11.1932 32.1192 11.537 32.463C11.8808 32.8068 12.3471 33 12.8333 33H14.6667C15.1529 33 15.6192 32.8068 15.963 32.463C16.3068 32.1192 16.5 31.6529 16.5 31.1667V12.8333C16.5 12.3471 16.3068 11.8808 15.963 11.537C15.6192 11.1932 15.1529 11 14.6667 11H12.8333C12.3471 11 11.8808 11.1932 11.537 11.537C11.1932 11.8808 11 12.3471 11 12.8333Z" stroke="#C2F13C" stroke-width="2.75" stroke-linecap="round" stroke-linejoin="round"/>
<path d="M16.5 22H27.5" stroke="#C2F13C" stroke-width="2.75" stroke-linecap="round" stroke-linejoin="round"/>
<path d="M27.5 12.8333V31.1667C27.5 31.6529 27.6932 32.1192 28.037 32.463C28.3808 32.8068 28.8471 33 29.3333 33H31.1667C31.6529 33 32.1192 32.8068 32.463 32.463C32.8068 32.1192 33 31.6529 33 31.1667V12.8333C33 12.3471 32.8068 11.8808 32.463 11.537C32.1192 11.1932 31.6529 11 31.1667 11H29.3333C28.8471 11 28.3808 11.1932 28.037 11.537C27.6932 11.8808 27.5 12.3471 27.5 12.8333Z" stroke="#C2F13C" stroke-width="2.75" stroke-linecap="round" stroke-linejoin="round"/>
<path d="M33 14.6667H36.6667C37.1529 14.6667 37.6192 14.8598 37.963 15.2037C38.3068 15.5475 38.5 16.0138 38.5 16.5V27.5C38.5 27.9863 38.3068 28.4526 37.963 28.7964C37.6192 29.1402 37.1529 29.3334 36.6667 29.3334H33" stroke="#C2F13C" stroke-width="2.75" stroke-linecap="round" stroke-linejoin="round"/>
<path d="M40.3333 22H38.5" stroke="#C2F13C" stroke-width="2.75" stroke-linecap="round" stroke-linejoin="round"/>
</g>
<defs>
<clipPath id="clip0_23_19">
<rect width="44" height="44" fill="white"/>
</clipPath>
</defs>
</svg>
