<svg width="40" height="40" viewBox="0 0 40 40" fill="none" xmlns="http://www.w3.org/2000/svg">
<rect width="40" height="40" rx="8" fill="#C5FFFF" fill-opacity="0.5"/>
<path d="M18.1528 13.5556C18.2037 13.6593 18.2373 13.7703 18.2524 13.8844L18.5308 18.0243L18.669 20.1051C18.6705 20.3191 18.704 20.5317 18.7687 20.7361C18.9356 21.1326 19.3372 21.3846 19.7741 21.3671L26.4313 20.9316C26.7196 20.9269 26.998 21.0347 27.2052 21.2313C27.3779 21.3952 27.4894 21.6096 27.5246 21.8402L27.5364 21.9802C27.2609 25.795 24.4592 28.9767 20.6524 29.7981C16.8456 30.6194 12.9419 28.8844 11.0607 25.535C10.5184 24.5619 10.1797 23.4923 10.0644 22.389C10.0162 22.0624 9.99503 21.7326 10.001 21.4026C9.99503 17.3128 12.9075 13.777 16.9843 12.9246C17.475 12.8482 17.956 13.108 18.1528 13.5556Z" fill="#17D48B"/>
<path opacity="0.4" d="M20.8701 10.0008C25.43 10.1168 29.2624 13.3958 30.0001 17.8123L29.993 17.8449V17.8449L29.9729 17.8923L29.9757 18.0224C29.9652 18.1947 29.8987 18.3605 29.784 18.4945C29.6646 18.634 29.5014 18.729 29.3217 18.7659L29.2121 18.7809L21.5313 19.2786C21.2758 19.3038 21.0214 19.2214 20.8314 19.052C20.6731 18.9107 20.5719 18.7201 20.5433 18.5147L20.0277 10.8451C20.0188 10.8191 20.0188 10.791 20.0277 10.7651C20.0348 10.5537 20.1278 10.3538 20.2861 10.2102C20.4444 10.0666 20.6547 9.9912 20.8701 10.0008Z" fill="#17D48B"/>
</svg>
