<svg width="24" height="25" viewBox="0 0 24 25" fill="none" xmlns="http://www.w3.org/2000/svg">
    <g clip-path="url(#clip0_5_22)">
        <path
            d="M3 21.28L4.65 17.48C3.38766 15.6881 2.82267 13.497 3.06104 11.3181C3.29942 9.13918 4.32479 7.12214 5.94471 5.64552C7.56463 4.1689 9.66775 3.33421 11.8594 3.2981C14.051 3.26198 16.1805 4.02693 17.8482 5.44937C19.5159 6.87182 20.6071 8.85398 20.9172 11.0239C21.2272 13.1938 20.7347 15.4022 19.5321 17.2348C18.3295 19.0673 16.4994 20.398 14.3854 20.9771C12.2713 21.5562 10.0186 21.3439 8.05 20.38L3 21.28Z"
            stroke="#a1ff14" stroke-width="2" stroke-linecap="round" stroke-linejoin="round" />
        <path
            d="M9 10.2798C9 10.4124 9.05268 10.5396 9.14645 10.6333C9.24021 10.7271 9.36739 10.7798 9.5 10.7798C9.63261 10.7798 9.75979 10.7271 9.85355 10.6333C9.94732 10.5396 10 10.4124 10 10.2798V9.27979C10 9.14718 9.94732 9.02 9.85355 8.92623C9.75979 8.83246 9.63261 8.77979 9.5 8.77979C9.36739 8.77979 9.24021 8.83246 9.14645 8.92623C9.05268 9.02 9 9.14718 9 9.27979V10.2798ZM9 10.2798C9 11.6059 9.52678 12.8776 10.4645 13.8153C11.4021 14.753 12.6739 15.2798 14 15.2798M14 15.2798H15C15.1326 15.2798 15.2598 15.2271 15.3536 15.1333C15.4473 15.0396 15.5 14.9124 15.5 14.7798C15.5 14.6472 15.4473 14.52 15.3536 14.4262C15.2598 14.3325 15.1326 14.2798 15 14.2798H14C13.8674 14.2798 13.7402 14.3325 13.6464 14.4262C13.5527 14.52 13.5 14.6472 13.5 14.7798C13.5 14.9124 13.5527 15.0396 13.6464 15.1333C13.7402 15.2271 13.8674 15.2798 14 15.2798Z"
            stroke="#a1ff14" stroke-width="2" stroke-linecap="round" stroke-linejoin="round" />
    </g>
    <defs>
        <clipPath id="clip0_5_22">
            <rect width="24" height="24" fill="white" transform="translate(0 0.279785)" />
        </clipPath>
    </defs>
</svg>