<svg width="24" height="24" viewBox="0 0 24 24" fill="none" xmlns="http://www.w3.org/2000/svg">
<path fill-rule="evenodd" clip-rule="evenodd" d="M21.5241 9.75296C20.885 5.81957 17.5441 2.89333 13.5608 2.77814C13.3714 2.77071 13.1868 2.8389 13.0477 2.96767C12.9086 3.09645 12.8265 3.27523 12.8193 3.46464V3.46464V3.52871L13.2678 10.2381C13.2973 10.6897 13.6856 11.0331 14.1374 11.007L20.8651 10.5585C21.0547 10.5444 21.2308 10.4554 21.3545 10.3111C21.4782 10.1668 21.5393 9.97906 21.5241 9.78958V9.75296Z" stroke="#91EED1" stroke-width="1.5" stroke-linecap="round" stroke-linejoin="round"/>
<path d="M8.90151 6.76901C9.32947 6.67002 9.76741 6.88899 9.94499 7.29075C9.9915 7.38525 10.0195 7.48778 10.0274 7.59281C10.1189 8.89258 10.3111 11.7393 10.421 13.277C10.4397 13.554 10.5681 13.8121 10.7777 13.9942C10.9872 14.1763 11.2608 14.2674 11.5377 14.2473V14.2473L17.1853 13.8994C17.4374 13.8843 17.6846 13.974 17.8683 14.1473C18.052 14.3207 18.156 14.5622 18.1555 14.8148V14.8148C17.9266 18.2252 15.4764 21.0762 12.1392 21.8152C8.80201 22.5542 5.37718 21.0042 3.72988 18.0093C3.23813 17.1473 2.92672 16.1944 2.81455 15.2084C2.7666 14.9058 2.74821 14.5992 2.75963 14.293C2.76935 10.651 5.32714 7.51297 8.89236 6.76901" stroke="#17D48B" stroke-width="1.5" stroke-linecap="round" stroke-linejoin="round"/>
</svg>
