<svg width="50" height="58" viewBox="0 0 50 58" fill="none" xmlns="http://www.w3.org/2000/svg">
<path d="M37 5.93579C37 6.73144 37.3161 7.4945 37.8787 8.05711C38.4413 8.61972 39.2044 8.93579 40 8.93579C40.7956 8.93579 41.5587 8.61972 42.1213 8.05711C42.6839 7.4945 43 6.73144 43 5.93579C43 5.14014 42.6839 4.37708 42.1213 3.81447C41.5587 3.25186 40.7956 2.93579 40 2.93579C39.2044 2.93579 38.4413 3.25186 37.8787 3.81447C37.3161 4.37708 37 5.14014 37 5.93579Z" stroke="#A1FF14" stroke-width="5" stroke-linecap="round" stroke-linejoin="round"/>
<path d="M3 54.9358L19.6667 53.1358L23 45.9358" stroke="#A1FF14" stroke-width="5" stroke-linecap="round" stroke-linejoin="round"/>
<path d="M47 54.9358V38.4141H28.8824L37.1176 16.9358L19 20.2401L23.9412 26.8488" stroke="#A1FF14" stroke-width="5" stroke-linecap="round" stroke-linejoin="round"/>
</svg>
