<svg width="340" height="40" viewBox="0 0 340 40" fill="none" xmlns="http://www.w3.org/2000/svg">
<path d="M102.337 10.856C102.423 10.6853 102.572 10.6 102.785 10.6H107.297C107.404 10.6 107.489 10.6427 107.553 10.728C107.639 10.792 107.681 10.8773 107.681 10.984V32.616C107.681 32.7227 107.639 32.8187 107.553 32.904C107.489 32.968 107.404 33 107.297 33H102.753C102.647 33 102.551 32.968 102.465 32.904C102.401 32.8187 102.369 32.7227 102.369 32.616V19.752C102.369 19.6667 102.348 19.624 102.305 19.624C102.263 19.624 102.22 19.656 102.177 19.72L99.4253 24.136C99.3399 24.3067 99.1906 24.392 98.9773 24.392H96.7053C96.4919 24.392 96.3426 24.3067 96.2573 24.136L93.4733 19.688C93.4306 19.624 93.3879 19.592 93.3453 19.592C93.3026 19.592 93.2813 19.6347 93.2813 19.72V32.616C93.2813 32.7227 93.2386 32.8187 93.1533 32.904C93.0893 32.968 93.0039 33 92.8973 33H88.3533C88.2466 33 88.1506 32.968 88.0653 32.904C88.0013 32.8187 87.9693 32.7227 87.9693 32.616V10.984C87.9693 10.8773 88.0013 10.792 88.0653 10.728C88.1506 10.6427 88.2466 10.6 88.3533 10.6H92.8653C93.0573 10.6 93.2066 10.6853 93.3133 10.856L97.7613 17.832C97.8253 17.96 97.8893 17.96 97.9533 17.832L102.337 10.856ZM116.861 16.2C118.29 16.2 119.581 16.4453 120.733 16.936C121.885 17.4053 122.792 18.0667 123.453 18.92C124.114 19.752 124.445 20.68 124.445 21.704V32.616C124.445 32.7227 124.402 32.8187 124.317 32.904C124.253 32.968 124.168 33 124.061 33H119.517C119.41 33 119.314 32.968 119.229 32.904C119.165 32.8187 119.133 32.7227 119.133 32.616V31.496C119.133 31.4107 119.112 31.368 119.069 31.368C119.026 31.3467 118.984 31.3787 118.941 31.464C118.13 32.6587 116.744 33.256 114.781 33.256C113.074 33.256 111.709 32.8613 110.685 32.072C109.682 31.2613 109.181 30.0773 109.181 28.52C109.181 26.8773 109.746 25.608 110.877 24.712C112.029 23.816 113.693 23.368 115.869 23.368H118.973C119.08 23.368 119.133 23.3147 119.133 23.208V22.6C119.133 22.024 118.941 21.576 118.557 21.256C118.173 20.9147 117.64 20.744 116.957 20.744C116.445 20.744 115.997 20.84 115.613 21.032C115.25 21.224 115.016 21.4693 114.909 21.768C114.802 22.0027 114.653 22.1093 114.461 22.088L109.853 21.48C109.597 21.4373 109.469 21.3413 109.469 21.192C109.554 20.2533 109.917 19.4107 110.557 18.664C111.218 17.896 112.093 17.2987 113.181 16.872C114.29 16.424 115.517 16.2 116.861 16.2ZM116.349 29.448C117.16 29.448 117.821 29.2453 118.333 28.84C118.866 28.4133 119.133 27.8587 119.133 27.176V26.408C119.133 26.3013 119.08 26.248 118.973 26.248H117.053C116.242 26.248 115.613 26.3867 115.165 26.664C114.738 26.9413 114.525 27.3573 114.525 27.912C114.525 28.3813 114.685 28.7547 115.005 29.032C115.325 29.3093 115.773 29.448 116.349 29.448ZM135.234 16.232C136.002 16.232 136.599 16.3707 137.026 16.648C137.197 16.7547 137.261 16.9147 137.218 17.128L136.482 21.576C136.461 21.832 136.311 21.9067 136.034 21.8C135.65 21.7147 135.287 21.672 134.946 21.672C134.583 21.672 134.306 21.6933 134.114 21.736C133.453 21.8213 132.887 22.0773 132.418 22.504C131.97 22.9307 131.746 23.496 131.746 24.2V32.616C131.746 32.7227 131.703 32.8187 131.618 32.904C131.554 32.968 131.469 33 131.362 33H126.818C126.711 33 126.615 32.968 126.53 32.904C126.466 32.8187 126.434 32.7227 126.434 32.616V16.84C126.434 16.7333 126.466 16.648 126.53 16.584C126.615 16.4987 126.711 16.456 126.818 16.456H131.362C131.469 16.456 131.554 16.4987 131.618 16.584C131.703 16.648 131.746 16.7333 131.746 16.84V17.864C131.746 17.928 131.767 17.9707 131.81 17.992C131.853 18.0133 131.885 17.992 131.906 17.928C132.759 16.7973 133.869 16.232 135.234 16.232ZM138.647 33C138.54 33 138.444 32.968 138.359 32.904C138.295 32.8187 138.263 32.7227 138.263 32.616V10.984C138.263 10.8773 138.295 10.792 138.359 10.728C138.444 10.6427 138.54 10.6 138.647 10.6H143.191C143.297 10.6 143.383 10.6427 143.447 10.728C143.532 10.792 143.575 10.8773 143.575 10.984V32.616C143.575 32.7227 143.532 32.8187 143.447 32.904C143.383 32.968 143.297 33 143.191 33H138.647ZM160.92 23.272C161.026 23.912 161.058 24.7547 161.016 25.8C160.994 26.056 160.856 26.184 160.6 26.184H150.84C150.797 26.184 150.754 26.2053 150.712 26.248C150.669 26.2693 150.658 26.3013 150.68 26.344C150.722 26.5787 150.829 26.888 151 27.272C151.256 27.72 151.64 28.0827 152.152 28.36C152.664 28.6373 153.293 28.776 154.04 28.776C155.384 28.776 156.44 28.3387 157.208 27.464C157.293 27.3573 157.389 27.304 157.496 27.304C157.602 27.304 157.688 27.3467 157.752 27.432L160.216 30.248C160.301 30.312 160.344 30.3973 160.344 30.504C160.344 30.5893 160.301 30.6747 160.216 30.76C159.469 31.5707 158.541 32.1893 157.432 32.616C156.344 33.0427 155.149 33.256 153.848 33.256C151.906 33.256 150.253 32.84 148.888 32.008C147.544 31.1547 146.573 29.9707 145.976 28.456C145.528 27.3893 145.304 26.056 145.304 24.456C145.304 23.3467 145.474 22.28 145.816 21.256C146.37 19.6773 147.277 18.44 148.536 17.544C149.816 16.6267 151.33 16.168 153.08 16.168C154.488 16.168 155.746 16.4773 156.856 17.096C157.965 17.6933 158.861 18.536 159.544 19.624C160.248 20.6907 160.706 21.9067 160.92 23.272ZM153.08 20.744C151.97 20.744 151.234 21.2667 150.872 22.312C150.786 22.5467 150.733 22.7707 150.712 22.984C150.669 23.0907 150.712 23.144 150.84 23.144H155.384C155.469 23.144 155.512 23.1013 155.512 23.016C155.512 22.8453 155.469 22.632 155.384 22.376C155.234 21.8427 154.957 21.4373 154.552 21.16C154.168 20.8827 153.677 20.744 153.08 20.744ZM171.857 16.2C173.521 16.2 174.887 16.7333 175.953 17.8C177.02 18.8453 177.553 20.2747 177.553 22.088V32.616C177.553 32.7227 177.511 32.8187 177.425 32.904C177.361 32.968 177.276 33 177.169 33H172.625C172.519 33 172.423 32.968 172.337 32.904C172.273 32.8187 172.241 32.7227 172.241 32.616V23.24C172.241 22.5147 172.039 21.9173 171.633 21.448C171.228 20.9787 170.705 20.744 170.065 20.744C169.404 20.744 168.871 20.9787 168.465 21.448C168.06 21.896 167.857 22.4933 167.857 23.24V32.616C167.857 32.7227 167.815 32.8187 167.729 32.904C167.665 32.968 167.58 33 167.473 33H162.929C162.823 33 162.727 32.968 162.641 32.904C162.577 32.8187 162.545 32.7227 162.545 32.616V16.84C162.545 16.7333 162.577 16.648 162.641 16.584C162.727 16.4987 162.823 16.456 162.929 16.456H167.473C167.58 16.456 167.665 16.4987 167.729 16.584C167.815 16.648 167.857 16.7333 167.857 16.84V18.024C167.857 18.1093 167.868 18.1627 167.889 18.184C167.932 18.184 167.975 18.152 168.017 18.088C168.828 16.8293 170.108 16.2 171.857 16.2ZM194.796 23.272C194.902 23.912 194.934 24.7547 194.892 25.8C194.87 26.056 194.732 26.184 194.476 26.184H184.716C184.673 26.184 184.63 26.2053 184.588 26.248C184.545 26.2693 184.534 26.3013 184.556 26.344C184.598 26.5787 184.705 26.888 184.876 27.272C185.132 27.72 185.516 28.0827 186.028 28.36C186.54 28.6373 187.169 28.776 187.916 28.776C189.26 28.776 190.316 28.3387 191.084 27.464C191.169 27.3573 191.265 27.304 191.372 27.304C191.478 27.304 191.564 27.3467 191.628 27.432L194.092 30.248C194.177 30.312 194.22 30.3973 194.22 30.504C194.22 30.5893 194.177 30.6747 194.092 30.76C193.345 31.5707 192.417 32.1893 191.308 32.616C190.22 33.0427 189.025 33.256 187.724 33.256C185.782 33.256 184.129 32.84 182.764 32.008C181.42 31.1547 180.449 29.9707 179.852 28.456C179.404 27.3893 179.18 26.056 179.18 24.456C179.18 23.3467 179.35 22.28 179.692 21.256C180.246 19.6773 181.153 18.44 182.412 17.544C183.692 16.6267 185.206 16.168 186.956 16.168C188.364 16.168 189.622 16.4773 190.732 17.096C191.841 17.6933 192.737 18.536 193.42 19.624C194.124 20.6907 194.582 21.9067 194.796 23.272ZM186.956 20.744C185.846 20.744 185.11 21.2667 184.748 22.312C184.662 22.5467 184.609 22.7707 184.588 22.984C184.545 23.0907 184.588 23.144 184.716 23.144H189.26C189.345 23.144 189.388 23.1013 189.388 23.016C189.388 22.8453 189.345 22.632 189.26 22.376C189.11 21.8427 188.833 21.4373 188.428 21.16C188.044 20.8827 187.553 20.744 186.956 20.744ZM209.612 33.256C207.99 33.256 206.604 32.8507 205.452 32.04C204.3 31.208 203.51 30.088 203.084 28.68C202.764 27.6987 202.604 26.408 202.604 24.808C202.604 23.336 202.764 22.0453 203.084 20.936C203.51 19.5707 204.3 18.4827 205.452 17.672C206.625 16.8613 208.012 16.456 209.612 16.456C211.212 16.456 212.609 16.8613 213.804 17.672C214.998 18.4827 215.777 19.5067 216.14 20.744C216.268 21.0853 216.353 21.4373 216.396 21.8C216.396 21.9707 216.3 22.0773 216.108 22.12L213.708 22.472H213.644C213.494 22.472 213.388 22.376 213.324 22.184L213.228 21.672C213.057 20.9467 212.641 20.3387 211.98 19.848C211.318 19.3573 210.518 19.112 209.58 19.112C208.662 19.112 207.884 19.3573 207.244 19.848C206.604 20.3387 206.188 20.9893 205.996 21.8C205.804 22.568 205.708 23.5813 205.708 24.84C205.708 26.0773 205.804 27.08 205.996 27.848C206.209 28.7013 206.625 29.3733 207.244 29.864C207.884 30.3547 208.662 30.6 209.58 30.6C210.518 30.6 211.318 30.3547 211.98 29.864C212.662 29.3733 213.089 28.7333 213.26 27.944C213.281 27.9227 213.281 27.9013 213.26 27.88C213.26 27.8373 213.27 27.8053 213.292 27.784V27.656C213.356 27.4853 213.473 27.4213 213.644 27.464L216.044 27.848C216.214 27.8907 216.3 27.976 216.3 28.104V28.232C216.3 28.424 216.246 28.6587 216.14 28.936C215.777 30.2373 214.998 31.2827 213.804 32.072C212.609 32.8613 211.212 33.256 209.612 33.256ZM225.819 33.256C224.24 33.256 222.864 32.8613 221.691 32.072C220.517 31.2613 219.696 30.1413 219.227 28.712C218.843 27.56 218.651 26.2587 218.651 24.808C218.651 23.2933 218.832 22.0133 219.195 20.968C219.664 19.56 220.485 18.4613 221.659 17.672C222.832 16.8613 224.229 16.456 225.851 16.456C227.387 16.456 228.72 16.8613 229.851 17.672C231.003 18.4613 231.824 19.5493 232.315 20.936C232.699 22.024 232.891 23.304 232.891 24.776C232.891 26.2693 232.699 27.5813 232.315 28.712C231.845 30.1413 231.035 31.2613 229.883 32.072C228.731 32.8613 227.376 33.256 225.819 33.256ZM225.819 30.6C226.672 30.6 227.419 30.3653 228.059 29.896C228.699 29.4053 229.157 28.7227 229.435 27.848C229.669 27.0373 229.787 26.0347 229.787 24.84C229.787 23.6453 229.68 22.6533 229.467 21.864C229.189 20.9893 228.731 20.3173 228.091 19.848C227.451 19.3573 226.672 19.112 225.755 19.112C224.88 19.112 224.123 19.3573 223.483 19.848C222.843 20.3173 222.384 20.9893 222.107 21.864C221.872 22.6107 221.755 23.6027 221.755 24.84C221.755 26.0773 221.872 27.08 222.107 27.848C222.363 28.7227 222.811 29.4053 223.451 29.896C224.112 30.3653 224.901 30.6 225.819 30.6ZM243.537 16.488C245.286 16.488 246.673 17 247.697 18.024C248.721 19.0267 249.233 20.392 249.233 22.12V32.68C249.233 32.8933 249.126 33 248.913 33H246.481C246.267 33 246.161 32.8933 246.161 32.68V22.728C246.161 21.6613 245.851 20.7973 245.233 20.136C244.614 19.4747 243.793 19.144 242.769 19.144C241.766 19.144 240.945 19.4747 240.305 20.136C239.665 20.7973 239.345 21.6507 239.345 22.696V32.68C239.345 32.8933 239.238 33 239.025 33H236.593C236.379 33 236.273 32.8933 236.273 32.68V17.032C236.273 16.8187 236.379 16.712 236.593 16.712H239.025C239.238 16.712 239.345 16.8187 239.345 17.032V18.184C239.345 18.2267 239.355 18.2587 239.377 18.28C239.419 18.3013 239.451 18.2907 239.473 18.248C240.39 17.0747 241.745 16.488 243.537 16.488ZM261.008 18.92C261.008 19.1333 260.902 19.24 260.688 19.24H257.232C257.147 19.24 257.104 19.2827 257.104 19.368V27.848C257.104 28.744 257.307 29.3947 257.712 29.8C258.118 30.184 258.747 30.376 259.6 30.376H260.528C260.742 30.376 260.848 30.4827 260.848 30.696V32.68C260.848 32.8933 260.742 33 260.528 33C259.846 33.0427 259.355 33.064 259.056 33.064C257.435 33.064 256.208 32.776 255.376 32.2C254.566 31.6027 254.16 30.5147 254.16 28.936V19.368C254.16 19.2827 254.118 19.24 254.032 19.24H252.08C251.867 19.24 251.76 19.1333 251.76 18.92V17.032C251.76 16.8187 251.867 16.712 252.08 16.712H254.032C254.118 16.712 254.16 16.6693 254.16 16.584V12.808C254.16 12.5947 254.267 12.488 254.48 12.488H256.784C256.998 12.488 257.104 12.5947 257.104 12.808V16.584C257.104 16.6693 257.147 16.712 257.232 16.712H260.688C260.902 16.712 261.008 16.8187 261.008 17.032V18.92ZM270.101 16.456C271.402 16.456 272.533 16.6907 273.493 17.16C274.474 17.608 275.221 18.248 275.733 19.08C276.266 19.8907 276.533 20.8187 276.533 21.864V32.68C276.533 32.8933 276.426 33 276.213 33H273.781C273.567 33 273.461 32.8933 273.461 32.68V31.528C273.461 31.4213 273.407 31.4 273.301 31.464C272.746 32.04 272.063 32.488 271.253 32.808C270.463 33.1067 269.578 33.256 268.597 33.256C267.018 33.256 265.706 32.8613 264.661 32.072C263.637 31.2613 263.125 30.0453 263.125 28.424C263.125 26.76 263.701 25.4587 264.853 24.52C266.026 23.56 267.658 23.08 269.749 23.08H273.333C273.418 23.08 273.461 23.0373 273.461 22.952V22.088C273.461 21.1493 273.183 20.424 272.629 19.912C272.095 19.3787 271.274 19.112 270.165 19.112C269.269 19.112 268.533 19.2933 267.957 19.656C267.402 19.9973 267.061 20.4667 266.933 21.064C266.869 21.2773 266.741 21.3733 266.549 21.352L263.957 21C263.743 20.9573 263.647 20.872 263.669 20.744C263.839 19.4853 264.511 18.4613 265.685 17.672C266.858 16.8613 268.33 16.456 270.101 16.456ZM269.269 30.664C270.399 30.664 271.381 30.3653 272.213 29.768C273.045 29.1707 273.461 28.4133 273.461 27.496V25.608C273.461 25.5227 273.418 25.48 273.333 25.48H270.325C269.066 25.48 268.063 25.7253 267.317 26.216C266.57 26.7067 266.197 27.3893 266.197 28.264C266.197 29.0533 266.474 29.6507 267.029 30.056C267.605 30.4613 268.351 30.664 269.269 30.664ZM290.152 10.92C290.152 10.7067 290.259 10.6 290.472 10.6H292.904C293.117 10.6 293.224 10.7067 293.224 10.92V32.68C293.224 32.8933 293.117 33 292.904 33H290.472C290.259 33 290.152 32.8933 290.152 32.68V31.624C290.152 31.5813 290.131 31.5493 290.088 31.528C290.067 31.5067 290.035 31.5173 289.992 31.56C289.523 32.0933 288.968 32.5093 288.328 32.808C287.688 33.1067 286.995 33.256 286.248 33.256C284.712 33.256 283.432 32.8827 282.408 32.136C281.405 31.368 280.669 30.2907 280.2 28.904C279.795 27.7733 279.592 26.408 279.592 24.808C279.592 23.3147 279.763 22.024 280.104 20.936C280.552 19.528 281.288 18.4293 282.312 17.64C283.336 16.8507 284.648 16.456 286.248 16.456C286.973 16.456 287.656 16.6053 288.296 16.904C288.957 17.1813 289.523 17.5867 289.992 18.12C290.035 18.1627 290.067 18.1733 290.088 18.152C290.131 18.1307 290.152 18.0987 290.152 18.056V10.92ZM289.352 28.872C289.843 27.976 290.088 26.632 290.088 24.84C290.088 23.048 289.821 21.6827 289.288 20.744C288.669 19.656 287.763 19.112 286.568 19.112C285.288 19.112 284.339 19.624 283.72 20.648C283.037 21.7147 282.696 23.1227 282.696 24.872C282.696 26.5147 282.963 27.8373 283.496 28.84C284.115 30.0133 285.128 30.6 286.536 30.6C287.773 30.6 288.712 30.024 289.352 28.872ZM303.744 33.256C302.165 33.256 300.789 32.8613 299.616 32.072C298.442 31.2613 297.621 30.1413 297.152 28.712C296.768 27.56 296.576 26.2587 296.576 24.808C296.576 23.2933 296.757 22.0133 297.12 20.968C297.589 19.56 298.41 18.4613 299.584 17.672C300.757 16.8613 302.154 16.456 303.776 16.456C305.312 16.456 306.645 16.8613 307.776 17.672C308.928 18.4613 309.749 19.5493 310.24 20.936C310.624 22.024 310.816 23.304 310.816 24.776C310.816 26.2693 310.624 27.5813 310.24 28.712C309.77 30.1413 308.96 31.2613 307.808 32.072C306.656 32.8613 305.301 33.256 303.744 33.256ZM303.744 30.6C304.597 30.6 305.344 30.3653 305.984 29.896C306.624 29.4053 307.082 28.7227 307.36 27.848C307.594 27.0373 307.712 26.0347 307.712 24.84C307.712 23.6453 307.605 22.6533 307.392 21.864C307.114 20.9893 306.656 20.3173 306.016 19.848C305.376 19.3573 304.597 19.112 303.68 19.112C302.805 19.112 302.048 19.3573 301.408 19.848C300.768 20.3173 300.309 20.9893 300.032 21.864C299.797 22.6107 299.68 23.6027 299.68 24.84C299.68 26.0773 299.797 27.08 300.032 27.848C300.288 28.7227 300.736 29.4053 301.376 29.896C302.037 30.3653 302.826 30.6 303.744 30.6ZM321.333 16.552C322.016 16.552 322.635 16.6907 323.189 16.968C323.339 17.032 323.392 17.16 323.349 17.352L322.837 19.752C322.816 19.944 322.688 20.008 322.453 19.944C322.091 19.7947 321.664 19.72 321.173 19.72L320.725 19.752C319.723 19.7947 318.891 20.1467 318.229 20.808C317.589 21.448 317.269 22.2907 317.269 23.336V32.68C317.269 32.8933 317.163 33 316.949 33H314.517C314.304 33 314.197 32.8933 314.197 32.68V17.032C314.197 16.8187 314.304 16.712 314.517 16.712H316.949C317.163 16.712 317.269 16.8187 317.269 17.032V18.728C317.269 18.792 317.28 18.8347 317.301 18.856C317.344 18.856 317.376 18.8347 317.397 18.792C318.357 17.2987 319.669 16.552 321.333 16.552ZM331.26 16.456C332.561 16.456 333.692 16.6907 334.652 17.16C335.633 17.608 336.38 18.248 336.892 19.08C337.425 19.8907 337.692 20.8187 337.692 21.864V32.68C337.692 32.8933 337.585 33 337.372 33H334.94C334.726 33 334.62 32.8933 334.62 32.68V31.528C334.62 31.4213 334.566 31.4 334.46 31.464C333.905 32.04 333.222 32.488 332.412 32.808C331.622 33.1067 330.737 33.256 329.756 33.256C328.177 33.256 326.865 32.8613 325.82 32.072C324.796 31.2613 324.284 30.0453 324.284 28.424C324.284 26.76 324.86 25.4587 326.012 24.52C327.185 23.56 328.817 23.08 330.908 23.08H334.492C334.577 23.08 334.62 23.0373 334.62 22.952V22.088C334.62 21.1493 334.342 20.424 333.788 19.912C333.254 19.3787 332.433 19.112 331.324 19.112C330.428 19.112 329.692 19.2933 329.116 19.656C328.561 19.9973 328.22 20.4667 328.092 21.064C328.028 21.2773 327.9 21.3733 327.708 21.352L325.116 21C324.902 20.9573 324.806 20.872 324.828 20.744C324.998 19.4853 325.67 18.4613 326.844 17.672C328.017 16.8613 329.489 16.456 331.26 16.456ZM330.428 30.664C331.558 30.664 332.54 30.3653 333.372 29.768C334.204 29.1707 334.62 28.4133 334.62 27.496V25.608C334.62 25.5227 334.577 25.48 334.492 25.48H331.484C330.225 25.48 329.222 25.7253 328.476 26.216C327.729 26.7067 327.356 27.3893 327.356 28.264C327.356 29.0533 327.633 29.6507 328.188 30.056C328.764 30.4613 329.51 30.664 330.428 30.664Z" fill="#4E4B59"/>
<path d="M74 37V0L37 37H74Z" fill="#00D7D7"/>
<path d="M37 37V0L0 37H37Z" fill="#00D7D7"/>
<path d="M37 0V37L74 0H37Z" fill="#A6FFFF"/>
</svg>
