<svg width="233" height="234" viewBox="0 0 233 234" fill="none" xmlns="http://www.w3.org/2000/svg">
<g filter="url(#filter0_b_192_557)">
<path d="M227.574 119.248C227.574 179.607 178.643 228.538 118.284 228.538C57.9256 228.538 8.99512 179.607 8.99512 119.248C8.99512 58.8895 57.9256 9.95898 118.284 9.95898C178.643 9.95898 227.574 58.8895 227.574 119.248Z" fill="#181818" fill-opacity="0.2"/>
</g>
<g clip-path="url(#clip0_192_557)">
<path d="M202.116 77.4494L198.738 82.0032L194.975 86.7467C194.685 87.1262 194.299 87.3159 193.816 87.3159C193.623 87.3159 193.527 87.3159 193.334 87.221C192.755 87.0313 192.369 86.4621 192.369 85.8928V81.4339H189.377C188.798 81.4339 188.315 81.1493 188.122 80.5801C187.929 80.1057 187.929 79.5365 188.315 79.0622L191.983 74.5084L195.264 69.9546C195.65 69.4802 196.229 69.1956 196.905 69.3854C197.484 69.5751 197.87 70.1443 197.87 70.7136V75.1725H200.958C201.537 75.1725 202.02 75.4571 202.213 75.9314C202.502 76.4058 202.406 77.0699 202.116 77.4494Z" fill="#A1FF14"/>
</g>
<g clip-path="url(#clip1_192_557)">
<path d="M57.2965 163.801L53.9186 168.355L50.1547 173.099C49.8652 173.478 49.4792 173.668 48.9966 173.668C48.8036 173.668 48.7071 173.668 48.5141 173.573C47.935 173.383 47.549 172.814 47.549 172.245V167.786H44.5572C43.9781 167.786 43.4956 167.501 43.3026 166.932C43.1095 166.458 43.1095 165.889 43.4956 165.414L47.1629 160.86L50.4443 156.307C50.8303 155.832 51.4094 155.548 52.085 155.737C52.664 155.927 53.05 156.496 53.05 157.066V161.525H56.1383C56.7174 161.525 57.2 161.809 57.393 162.283C57.6825 162.758 57.586 163.422 57.2965 163.801Z" fill="#A1FF14"/>
</g>
<path d="M220.725 109.217L220.359 112.597L192.522 109.58L192.888 106.2L220.725 109.217ZM217.341 110.741L220.523 111.086L219.906 116.773C219.711 118.575 219.193 120.142 218.351 121.472C217.533 122.832 216.457 123.855 215.121 124.542C213.783 125.256 212.253 125.519 210.53 125.332C208.833 125.148 207.394 124.563 206.214 123.577C205.057 122.62 204.211 121.388 203.677 119.882C203.166 118.405 203.009 116.765 203.204 114.963L203.82 109.276L207.002 109.621L206.385 115.307C206.19 117.11 206.47 118.616 207.224 119.824C207.975 121.059 209.199 121.768 210.896 121.952C212.619 122.139 213.967 121.708 214.939 120.66C215.934 119.641 216.53 118.231 216.725 116.428L217.341 110.741Z" fill="white"/>
<path d="M189.34 134.817C189.879 133.197 190.739 131.882 191.919 130.869C193.116 129.891 194.516 129.274 196.118 129.021C197.712 128.792 199.407 128.977 201.203 129.575C203.025 130.182 204.501 131.067 205.631 132.23C206.753 133.418 207.479 134.784 207.809 136.327C208.13 137.896 208.004 139.54 207.431 141.261C206.858 142.981 206.003 144.327 204.865 145.297C203.744 146.301 202.403 146.908 200.843 147.12C199.283 147.331 197.58 147.13 195.733 146.515C195.556 146.456 195.37 146.38 195.176 146.287C194.999 146.228 194.885 146.19 194.835 146.173L199.8 131.258L202.381 132.117L198.211 144.642L196.87 142.846C196.971 142.964 197.135 143.103 197.363 143.263C197.616 143.432 197.831 143.545 198.008 143.604C199.046 143.95 200.016 144.034 200.918 143.856C201.812 143.704 202.596 143.333 203.27 142.742C203.945 142.152 204.446 141.363 204.774 140.376C205.162 139.212 205.242 138.129 205.014 137.125C204.802 136.156 204.304 135.287 203.52 134.52C202.752 133.787 201.702 133.184 200.37 132.713C199.003 132.258 197.768 132.085 196.663 132.195C195.559 132.306 194.614 132.694 193.83 133.36C193.046 134.027 192.456 134.955 192.06 136.144C191.665 137.333 191.568 138.467 191.771 139.547C191.999 140.634 192.539 141.671 193.391 142.658L191.014 144.606C189.85 143.207 189.12 141.685 188.824 140.041C188.545 138.43 188.717 136.689 189.34 134.817Z" fill="white"/>
<path d="M200.795 161.393L184.651 152.565L186.186 149.757L202.33 158.585L200.795 161.393ZM195.039 164.582C195.524 164.362 195.909 164.131 196.192 163.891C196.499 163.664 196.78 163.316 197.036 162.848C197.42 162.146 197.545 161.5 197.412 160.911C197.278 160.321 196.952 159.778 196.433 159.281C195.902 158.808 195.25 158.361 194.478 157.939L195.169 156.675C196.455 157.379 197.469 158.222 198.208 159.204C198.958 160.222 199.428 161.253 199.616 162.298C199.804 163.344 199.694 164.24 199.284 164.989C198.965 165.574 198.588 166.067 198.156 166.469C197.734 166.907 197.186 167.215 196.511 167.393L195.039 164.582Z" fill="white"/>
<path d="M195.134 169.467L189.722 176.906L187.296 175.142L192.708 167.702L195.134 169.467ZM197.156 181.918C197.68 181.969 198.095 181.875 198.4 181.636C198.712 181.434 198.962 181.204 199.15 180.945C199.386 180.622 199.493 180.271 199.471 179.892C199.455 179.551 199.279 179.159 198.942 178.716C198.605 178.273 198.08 177.792 197.369 177.275L177.313 162.686L179.196 160.098L199.574 174.922C200.761 175.785 201.605 176.664 202.109 177.558C202.613 178.452 202.821 179.345 202.732 180.237C202.65 181.166 202.279 182.084 201.621 182.989C201.275 183.464 200.905 183.837 200.509 184.11C200.113 184.382 199.724 184.577 199.341 184.695C198.943 184.834 198.581 184.901 198.256 184.895L197.156 181.918Z" fill="white"/>
<path d="M182.056 172.109C183.362 173.444 184.223 174.914 184.639 176.522C185.036 178.148 185.009 179.76 184.558 181.358C184.107 182.956 183.243 184.38 181.965 185.629C180.669 186.897 179.227 187.73 177.639 188.128C176.031 188.544 174.429 188.526 172.831 188.075C171.214 187.643 169.752 186.759 168.447 185.425C167.16 184.11 166.309 182.63 165.893 180.985C165.477 179.377 165.494 177.775 165.946 176.177C166.378 174.597 167.242 173.174 168.538 171.905C169.815 170.656 171.257 169.823 172.865 169.407C174.472 168.991 176.084 168.999 177.701 169.431C179.318 169.902 180.769 170.794 182.056 172.109ZM179.74 174.375C178.845 173.46 177.862 172.837 176.791 172.505C175.7 172.191 174.617 172.151 173.539 172.384C172.461 172.655 171.494 173.211 170.636 174.05C169.778 174.889 169.212 175.835 168.936 176.888C168.66 177.979 168.677 179.063 168.985 180.142C169.275 181.238 169.868 182.244 170.763 183.159C171.658 184.074 172.651 184.688 173.741 185.002C174.831 185.353 175.915 185.393 176.993 185.122C178.051 184.87 179.01 184.324 179.867 183.485C180.725 182.646 181.301 181.69 181.596 180.618C181.871 179.565 181.855 178.481 181.546 177.365C181.238 176.287 180.636 175.29 179.74 174.375Z" fill="white"/>
<path d="M169.25 195.332L158.977 180.066L161.632 178.28L171.905 193.545L169.25 195.332ZM162.672 195.516C163.204 195.543 163.652 195.515 164.014 195.432C164.391 195.371 164.8 195.192 165.243 194.894C165.907 194.448 166.315 193.932 166.468 193.347C166.62 192.762 166.581 192.13 166.349 191.45C166.094 190.786 165.721 190.088 165.23 189.358L166.425 188.554C167.244 189.771 167.756 190.986 167.96 192.198C168.158 193.447 168.1 194.579 167.786 195.593C167.473 196.608 166.962 197.353 166.254 197.83C165.701 198.202 165.14 198.467 164.571 198.625C163.995 198.82 163.367 198.841 162.685 198.688L162.672 195.516Z" fill="white"/>
<path d="M134.596 203.872L130.48 193.027L133.472 191.891L137.445 202.362C138.004 203.833 138.69 204.814 139.503 205.304C140.291 205.803 141.247 205.84 142.369 205.414C143.191 205.102 143.836 204.658 144.302 204.082C144.777 203.53 145.054 202.869 145.132 202.098C145.21 201.327 145.079 200.492 144.738 199.595L140.764 189.124L143.756 187.988L147.73 198.459C148.288 199.93 148.974 200.911 149.787 201.401C150.576 201.9 151.531 201.937 152.653 201.511C153.476 201.199 154.12 200.755 154.586 200.179C155.061 199.628 155.338 198.966 155.416 198.195C155.494 197.424 155.363 196.589 155.022 195.692L151.048 185.221L154.04 184.085L160.569 201.288L157.577 202.423L156.626 199.918C156.471 201.089 156.098 202.058 155.505 202.825C154.887 203.601 154.041 204.193 152.969 204.6C151.773 205.054 150.642 205.155 149.576 204.904C148.496 204.686 147.562 204.142 146.775 203.271C146.583 204.57 146.138 205.652 145.439 206.516C144.75 207.405 143.832 208.068 142.685 208.503C141.513 208.948 140.417 209.064 139.395 208.853C138.374 208.642 137.457 208.105 136.645 207.244C135.818 206.417 135.135 205.293 134.596 203.872Z" fill="white"/>
<path d="M129.32 197.813C129.251 197.123 129.032 196.542 128.663 196.07C128.267 195.6 127.764 195.262 127.154 195.056C126.519 194.878 125.818 194.828 125.048 194.906C124.066 195.004 123.211 195.292 122.481 195.767C121.725 196.245 121.158 196.865 120.779 197.627C120.376 198.418 120.223 199.291 120.319 200.246L119.442 197.922C119.324 196.755 119.585 195.75 120.224 194.909C120.837 194.07 121.642 193.413 122.639 192.937C123.61 192.464 124.599 192.177 125.608 192.076C126.722 191.963 127.793 192.084 128.82 192.436C129.823 192.817 130.661 193.417 131.332 194.233C132.004 195.05 132.403 196.082 132.528 197.329C132.707 199.107 132.226 200.589 131.086 201.776C129.922 202.992 128.212 203.713 125.957 203.94C124.63 204.074 123.513 204.025 122.605 203.795C121.674 203.594 120.923 203.321 120.352 202.976C119.784 202.658 119.395 202.389 119.186 202.169L118.997 200.298C119.99 200.842 120.991 201.197 121.999 201.363C123.01 201.556 124.073 201.597 125.187 201.485C126.222 201.381 127.058 201.163 127.694 200.831C128.304 200.501 128.745 200.082 129.015 199.572C129.285 199.063 129.387 198.476 129.32 197.813ZM130.647 206.202L132.435 208.394C131.796 208.968 130.905 209.567 129.761 210.191C128.592 210.818 127.158 211.217 125.46 211.387C124.027 211.531 122.757 211.431 121.65 211.087C120.52 210.772 119.621 210.232 118.955 209.469C118.262 208.708 117.855 207.73 117.735 206.536L116.414 193.402L119.598 193.082L120.875 205.778C120.939 206.415 121.097 206.921 121.35 207.298C121.605 207.701 121.943 208.002 122.365 208.201C122.761 208.402 123.216 208.531 123.731 208.586C124.245 208.642 124.781 208.641 125.339 208.585C126.241 208.495 127.053 208.306 127.774 208.019C128.469 207.734 129.054 207.421 129.529 207.078C130.004 206.736 130.376 206.444 130.647 206.202Z" fill="white"/>
<path d="M101.821 203.122C101.658 204.633 101.866 205.809 102.445 206.65C103.024 207.49 103.95 207.979 105.223 208.117C106.151 208.218 106.994 208.108 107.753 207.788C108.483 207.492 109.084 207.02 109.556 206.374C110.002 205.725 110.274 204.95 110.371 204.048L111.578 192.913L114.759 193.258L112.777 211.551L109.596 211.206L109.906 208.343C109.176 209.391 108.331 210.131 107.372 210.563C106.387 210.993 105.298 211.143 104.104 211.014C102.169 210.804 100.715 209.989 99.7424 208.57C98.7403 207.173 98.3585 205.375 98.5969 203.175L99.8466 191.642L103.028 191.987L101.821 203.122Z" fill="white"/>
<path d="M93.8091 199.256C94.2134 198.042 94.3183 196.882 94.124 195.778C93.9043 194.665 93.4443 193.682 92.744 192.831C92.0101 191.996 91.0738 191.389 89.9352 191.01C88.9991 190.699 88.0798 190.547 87.1775 190.556C86.2415 190.582 85.3899 190.734 84.6226 191.013C83.8469 191.316 83.2399 191.705 82.8016 192.177L84.065 188.382C84.9081 187.875 85.9663 187.609 87.2396 187.584C88.4792 187.575 89.6936 187.768 90.8828 188.164C92.578 188.728 93.9782 189.63 95.0834 190.869C96.1885 192.108 96.9185 193.546 97.2733 195.182C97.5944 196.834 97.4644 198.534 96.8832 200.28C96.2936 202.051 95.3792 203.489 94.1401 204.594C92.8756 205.691 91.4296 206.404 89.8023 206.733C88.1749 207.063 86.5136 206.945 84.8184 206.381C83.6292 205.985 82.5454 205.4 81.5669 204.624C80.5546 203.866 79.8628 203.031 79.4914 202.12L80.7548 198.325C80.8141 198.991 81.0674 199.666 81.5146 200.349C81.9618 201.032 82.5565 201.651 83.2988 202.208C84.0074 202.781 84.8298 203.223 85.7659 203.535C86.9045 203.914 88.0177 203.989 89.1054 203.761C90.1678 203.525 91.1247 203.014 91.9761 202.229C92.7938 201.462 93.4048 200.471 93.8091 199.256Z" fill="white"/>
<path d="M77.8616 181.982C79.3373 182.84 80.4508 183.949 81.2019 185.31C81.9166 186.682 82.2351 188.177 82.1575 189.797C82.0568 191.404 81.531 193.026 80.5801 194.663C79.6157 196.324 78.4491 197.589 77.0802 198.459C75.6882 199.316 74.2033 199.749 72.6255 199.757C71.0246 199.753 69.4401 199.295 67.8721 198.384C66.3041 197.473 65.1609 196.362 64.4425 195.05C63.6876 193.748 63.3654 192.312 63.4757 190.742C63.586 189.172 64.1301 187.545 65.1078 185.861C65.2016 185.7 65.3136 185.534 65.4438 185.363C65.5375 185.201 65.5978 185.098 65.6246 185.051L79.2179 192.947L77.8517 195.299L66.4375 188.669L68.4685 187.721C68.3324 187.796 68.1627 187.929 67.9596 188.119C67.7431 188.333 67.588 188.52 67.4942 188.682C66.9451 189.627 66.6656 190.559 66.6558 191.479C66.6229 192.385 66.827 193.228 67.268 194.009C67.709 194.789 68.3792 195.44 69.2785 195.963C70.3392 196.579 71.384 196.877 72.4128 196.858C73.4051 196.849 74.3566 196.538 75.2673 195.926C76.1415 195.323 76.945 194.418 77.6779 193.209C78.4012 191.964 78.8213 190.789 78.9383 189.685C79.0553 188.581 78.8672 187.578 78.3741 186.675C77.8811 185.772 77.0926 185.005 76.0089 184.376C74.9251 183.746 73.8342 183.421 72.7362 183.4C71.6248 183.402 70.4996 183.72 69.3606 184.353L67.9361 181.629C69.543 180.774 71.1815 180.369 72.8516 180.414C74.4852 180.468 76.1552 180.991 77.8616 181.982Z" fill="white"/>
<path d="M43.5983 139.033L40.4829 139.764L37.2579 126.017L40.3733 125.286L43.5983 139.033ZM19.4539 144.697L16.3384 145.428L13.1134 131.681L16.2288 130.951L19.4539 144.697ZM30.3578 142.139L27.2424 142.87L24.2001 129.902L27.3155 129.171L30.3578 142.139ZM16.7678 147.259L15.9913 143.948L43.2511 137.553L44.0277 140.863L16.7678 147.259Z" fill="white"/>
<path d="M29.5712 99.393L41.1607 99.8852L41.0249 103.082L29.835 102.607C28.2631 102.54 27.0917 102.784 26.3208 103.339C25.551 103.866 25.1407 104.73 25.0898 105.929C25.0524 106.808 25.2067 107.575 25.5525 108.23C25.8717 108.885 26.3703 109.399 27.0483 109.775C27.7263 110.151 28.5449 110.359 29.504 110.4L40.6939 110.875L40.5581 114.072L29.3682 113.597C27.7963 113.53 26.6249 113.774 25.854 114.329C25.0842 114.856 24.6739 115.72 24.6229 116.919C24.5856 117.798 24.7398 118.565 25.0857 119.22C25.4049 119.875 25.9035 120.39 26.5815 120.765C27.2595 121.141 28.078 121.349 29.0372 121.39L40.2271 121.865L40.0913 125.063L21.7079 124.282L21.8437 121.085L24.5212 121.198C23.5059 120.595 22.7627 119.869 22.2916 119.022C21.8216 118.148 21.6109 117.138 21.6596 115.992C21.7139 114.713 22.0667 113.634 22.718 112.754C23.3437 111.847 24.2118 111.203 25.3223 110.823C24.2038 110.135 23.3852 109.299 22.8664 108.316C22.321 107.332 22.0744 106.228 22.1264 105.002C22.1796 103.75 22.5046 102.696 23.1015 101.841C23.6983 100.985 24.5525 100.354 25.6641 99.9476C26.7502 99.5133 28.0525 99.3284 29.5712 99.393Z" fill="white"/>
<path d="M37.1396 97.0133C37.8015 97.2199 38.4219 97.2459 39.0009 97.0913C39.5878 96.9114 40.096 96.5811 40.5253 96.1005C40.9371 95.5865 41.2582 94.9604 41.4886 94.2222C41.7825 93.2803 41.8537 92.3807 41.7023 91.5233C41.5587 90.6404 41.2109 89.8754 40.6586 89.2282C40.0888 88.5475 39.3457 88.0642 38.4293 87.7782L40.911 87.8822C42.0311 88.2318 42.853 88.8654 43.3767 89.7831C43.9084 90.6753 44.1975 91.6734 44.2441 92.7774C44.2986 93.856 44.1749 94.8789 43.873 95.8462C43.5394 96.9154 43.0092 97.8534 42.2825 98.6602C41.5383 99.4336 40.6588 99.9692 39.644 100.267C38.6292 100.565 37.5236 100.527 36.3272 100.154C34.6216 99.6216 33.4464 98.5984 32.8015 97.0842C32.1392 95.5367 32.1456 93.681 32.8208 91.5172C33.218 90.2444 33.7004 89.2357 34.2681 88.491C34.8182 87.7128 35.3636 87.1288 35.9043 86.7388C36.4196 86.3409 36.8196 86.0886 37.1043 85.9819L38.8989 86.542C38.0099 87.2423 37.2912 88.0237 36.7427 88.8861C36.1688 89.7406 35.715 90.7024 35.3813 91.7715C35.0715 92.7643 34.9446 93.6186 35.0005 94.3345C35.0644 95.0249 35.2778 95.5943 35.6407 96.0427C36.0036 96.4912 36.5032 96.8147 37.1396 97.0133ZM28.9017 94.9454L26.1841 95.7315C25.907 94.9187 25.7053 93.8641 25.5791 92.5676C25.4609 91.2457 25.656 89.7702 26.1644 88.141C26.5934 86.7664 27.1831 85.6375 27.9336 84.7543C28.6666 83.8377 29.5151 83.2225 30.479 82.9087C31.4508 82.5695 32.5095 82.5786 33.655 82.9361L46.2557 86.8684L45.3024 89.9231L33.1218 86.1219C32.5108 85.9313 31.9826 85.8782 31.5373 85.9627C31.0664 86.0392 30.6569 86.2326 30.3086 86.543C29.9683 86.8279 29.6717 87.1963 29.419 87.6481C29.1662 88.1 28.9564 88.5933 28.7896 89.1278C28.5195 89.9933 28.3751 90.8143 28.3563 91.5906C28.3454 92.3414 28.4046 93.0024 28.5336 93.5734C28.6627 94.1445 28.7854 94.6018 28.9017 94.9454Z" fill="white"/>
<path d="M47.1797 87.4833L48.7864 84.6697C49.5506 85.1061 50.3759 85.301 51.2623 85.2544C52.1719 85.2211 53.0417 84.9347 53.8717 84.3953C54.7249 83.8692 55.449 83.085 56.0441 82.043C56.5069 81.2325 56.7663 80.3212 56.8222 79.309C56.8782 78.2969 56.6232 77.2914 56.0573 76.2927C55.5278 75.2841 54.5915 74.3963 53.2484 73.6293L37.6173 64.7034L39.2042 61.9246L54.8352 70.8504C56.6646 71.8951 57.9748 73.1499 58.7657 74.615C59.5798 76.0932 59.9557 77.613 59.8933 79.1742C59.8309 80.7354 59.4162 82.1875 58.6493 83.5306C57.7633 85.0821 56.687 86.2947 55.4205 87.1683C54.1672 88.0187 52.8161 88.4755 51.3674 88.5388C49.9419 88.6153 48.546 88.2635 47.1797 87.4833ZM37.9699 82.6387C36.2332 81.647 34.9561 80.4417 34.1387 79.023C33.2981 77.5911 32.8859 76.0813 32.902 74.4936C32.918 72.906 33.336 71.3943 34.1558 69.9585C34.9228 68.6154 35.9264 67.6377 37.1665 67.0255C38.4067 66.4132 39.8107 66.1862 41.3786 66.3445C42.9365 66.4664 44.5838 67.0233 46.3206 68.015C48.0342 68.9936 49.351 70.1294 50.2709 71.4223C51.204 72.6922 51.722 74.0167 51.825 75.396C51.9279 76.7752 51.5959 78.1364 50.8289 79.4795C50.0091 80.9152 48.9195 82.0434 47.5604 82.8641C46.2012 83.6848 44.6914 84.097 43.031 84.1008C41.3706 84.1046 39.6836 83.6173 37.9699 82.6387ZM39.5766 79.8251C40.8039 80.526 41.9848 80.8779 43.1193 80.8809C44.2671 80.8607 45.2989 80.5594 46.215 79.977C47.131 79.3946 47.8667 78.6171 48.4221 77.6445C48.8849 76.834 49.1212 75.9094 49.1308 74.8709C49.1404 73.8323 48.8622 72.8136 48.2964 71.8149C47.7305 70.8162 46.8338 69.9664 45.6065 69.2655C44.6802 68.7366 43.7838 68.4243 42.9172 68.3286C42.0274 68.2197 41.1939 68.2812 40.4167 68.5129C39.6527 68.7215 38.9714 69.0541 38.3729 69.5108C37.7744 69.9674 37.3032 70.4967 36.9594 71.0988C36.404 72.0714 36.1082 73.1002 36.0722 74.1851C36.0361 75.27 36.301 76.3118 36.8669 77.3105C37.4461 78.2861 38.3493 79.1243 39.5766 79.8251Z" fill="white"/>
<path d="M44.5222 55.8756L58.5308 67.8055L56.456 70.2418L42.4475 58.3119L44.5222 55.8756ZM50.807 53.9249C50.2868 54.0422 49.8635 54.1896 49.5372 54.3671C49.1906 54.5273 48.8445 54.8104 48.4987 55.2165C47.98 55.8255 47.7259 56.4323 47.7365 57.0368C47.7472 57.6413 47.9559 58.2393 48.3627 58.831C48.7868 59.4023 49.3339 59.9733 50.0038 60.5438L49.0702 61.6402C47.9536 60.6892 47.1332 59.6578 46.609 58.5459C46.0818 57.3964 45.8324 56.2909 45.8608 55.2292C45.8892 54.1676 46.1801 53.312 46.7334 52.6623C47.1656 52.1548 47.6343 51.7483 48.1395 51.443C48.6417 51.1001 49.2413 50.9102 49.9382 50.8732L50.807 53.9249Z" fill="white"/>
<path d="M68.8889 58.2195C67.5736 59.307 66.1472 59.9673 64.6099 60.2004C63.0761 60.3959 61.5627 60.1767 60.0696 59.5427C58.5971 58.8917 57.2577 57.8366 56.0512 56.3774C54.8278 54.8977 54.045 53.365 53.7029 51.7794C53.3813 50.1769 53.4897 48.634 54.028 47.1508C54.587 45.6507 55.5652 44.3229 56.9627 43.1674C58.3602 42.0119 59.7986 41.3244 61.2779 41.1048C62.7607 40.8476 64.2196 41.0427 65.6545 41.6902C67.0894 42.3376 68.4271 43.4115 69.6676 44.9117C69.7865 45.0556 69.9037 45.2182 70.0191 45.3996C70.138 45.5435 70.2145 45.636 70.2485 45.6771L58.1332 55.694L56.4 53.5978L66.5731 45.1866L66.7591 47.4203C66.7358 47.2665 66.67 47.0614 66.5617 46.8049C66.4365 46.5279 66.3144 46.3174 66.1954 46.1736C65.4987 45.331 64.7208 44.7458 63.8617 44.4181C63.0231 44.0734 62.1613 43.9728 61.2765 44.1162C60.3916 44.2596 59.5484 44.6626 58.7469 45.3253C57.8015 46.107 57.1596 46.9837 56.8213 47.9555C56.4865 48.8897 56.4485 49.89 56.7073 50.9562C56.9696 51.985 57.5408 53.0525 58.4208 54.1587C59.3384 55.2685 60.2947 56.0694 61.2898 56.5615C62.2849 57.0536 63.2915 57.2248 64.3095 57.0751C65.3276 56.9254 66.3196 56.4512 67.2855 55.6526C68.2514 54.854 68.9344 53.9433 69.3344 52.9205C69.7175 51.8772 69.809 50.7115 69.6091 49.4236L72.658 49.0308C72.9037 50.8345 72.7162 52.5119 72.0956 54.063C71.4786 55.5766 70.4097 56.9621 68.8889 58.2195Z" fill="white"/>
<path d="M72.281 43.9445C72.8826 45.0743 73.6507 45.9493 74.5852 46.5695C75.5432 47.1772 76.572 47.5206 77.6716 47.5998C78.7821 47.6428 79.867 47.3823 80.9262 46.8183C81.7971 46.3545 82.5402 45.7927 83.1555 45.1327C83.7818 44.4366 84.2584 43.7146 84.5851 42.9665C84.8993 42.195 85.0363 41.4876 84.9959 40.8444L86.876 44.3751C86.662 45.3349 86.1257 46.2852 85.2671 47.2258C84.4195 48.1303 83.4425 48.8772 82.3363 49.4663C80.7592 50.306 79.141 50.6995 77.4814 50.6467C75.8218 50.5939 74.277 50.1325 72.847 49.2625C71.4279 48.3565 70.286 47.0915 69.4212 45.4674C68.5438 43.8198 68.1315 42.1662 68.1843 40.5066C68.2607 38.8345 68.7401 37.2952 69.6226 35.8887C70.5051 34.4822 71.7348 33.3591 73.3118 32.5193C74.4181 31.9302 75.5893 31.5482 76.8255 31.3733C78.0727 31.1624 79.1542 31.236 80.07 31.5942L81.9501 35.1248C81.4265 34.7088 80.7631 34.4276 79.9601 34.2812C79.157 34.1348 78.2982 34.139 77.3836 34.2937C76.48 34.4123 75.5928 34.7035 74.7219 35.1673C73.6627 35.7313 72.841 36.4861 72.2569 37.4316C71.6963 38.3646 71.407 39.4099 71.389 40.5675C71.382 41.6891 71.6793 42.8147 72.281 43.9445Z" fill="white"/>
<path d="M81.1588 21.2079C80.9585 20.6282 80.9903 20.067 81.2543 19.5244C81.5434 18.9731 81.9652 18.6017 82.5198 18.4101C83.0995 18.2098 83.6606 18.2416 84.2032 18.5056C84.7458 18.7695 85.1173 19.1913 85.3176 19.771C85.5091 20.3256 85.4773 20.8867 85.2221 21.4545C84.9581 21.9971 84.5363 22.3686 83.9566 22.5689C83.4021 22.7604 82.8409 22.7286 82.2731 22.4734C81.7218 22.1842 81.3504 21.7624 81.1588 21.2079ZM84.2077 28.1953L87.2323 27.1503L93.2409 44.5416L90.2164 45.5866L84.2077 28.1953Z" fill="white"/>
<path d="M119.881 28.3418L121.219 39.8644L118.041 40.2336L116.749 29.1084C116.567 27.5455 116.142 26.4271 115.473 25.7531C114.831 25.0761 113.913 24.8068 112.721 24.9452C111.847 25.0467 111.114 25.3198 110.521 25.7645C109.925 26.1827 109.495 26.7561 109.231 27.4848C108.967 28.2135 108.89 29.0547 109.001 30.0083L110.293 41.1335L107.114 41.5027L105.822 30.3775C105.641 28.8146 105.215 27.6962 104.546 27.0222C103.904 26.3452 102.987 26.0759 101.795 26.2143C100.921 26.3158 100.187 26.5889 99.5946 27.0336C98.9989 27.4518 98.5689 28.0252 98.3045 28.7539C98.0402 29.4826 97.9634 30.3238 98.0741 31.2774L99.3663 42.4026L96.1877 42.7718L94.0648 24.4947L97.2434 24.1255L97.5526 26.7876C97.9889 25.6899 98.5884 24.8417 99.3511 24.2431C100.14 23.6413 101.104 23.2743 102.243 23.142C103.515 22.9944 104.636 23.1728 105.608 23.6775C106.602 24.1525 107.375 24.9085 107.925 25.9453C108.428 24.7324 109.124 23.7925 110.013 23.1255C110.899 22.432 111.951 22.0145 113.17 21.8729C114.415 21.7283 115.507 21.8834 116.445 22.3381C117.384 22.7929 118.142 23.5371 118.718 24.5708C119.318 25.575 119.706 26.832 119.881 28.3418Z" fill="white"/>
<path d="M128.432 42.2533C126.744 41.998 125.301 41.3751 124.102 40.3846C122.934 39.3717 122.089 38.0975 121.566 36.562C121.069 35.0305 120.963 33.3287 121.246 31.4567C121.533 29.5583 122.154 27.9531 123.108 26.641C124.088 25.3329 125.31 24.3851 126.774 23.7976C128.265 23.2141 129.907 23.058 131.7 23.3293C133.493 23.6006 134.964 24.2144 136.114 25.1705C137.294 26.1043 138.121 27.3217 138.595 28.8229C139.07 30.3241 139.161 32.037 138.87 33.9618C138.842 34.1463 138.799 34.3421 138.74 34.549C138.712 34.7336 138.694 34.8523 138.686 34.905L123.143 32.5529L123.55 29.8635L136.602 31.8386L135.061 33.4663C135.16 33.3465 135.269 33.1607 135.388 32.909C135.511 32.6309 135.586 32.3996 135.614 32.2151C135.778 31.134 135.695 30.1641 135.367 29.3053C135.065 28.4504 134.565 27.7411 133.869 27.1771C133.172 26.6132 132.309 26.2534 131.281 26.0978C130.068 25.9143 128.987 26.0203 128.037 26.416C127.117 26.7893 126.346 27.4278 125.724 28.3315C125.132 29.2129 124.717 30.3503 124.48 31.7437C124.264 33.1675 124.305 34.4143 124.601 35.4841C124.898 36.5538 125.441 37.4182 126.232 38.0772C127.022 38.7362 128.037 39.1594 129.276 39.347C130.515 39.5345 131.649 39.4364 132.678 39.0527C133.711 38.6427 134.641 37.9338 135.468 36.9262L137.793 38.9367C136.613 40.3223 135.237 41.3009 133.667 41.8725C132.128 42.4216 130.383 42.5486 128.432 42.2533Z" fill="white"/>
<path d="M152.177 37.1747C152.722 35.7556 152.822 34.5656 152.476 33.6048C152.131 32.6439 151.361 31.9342 150.166 31.4755C149.295 31.1411 148.451 31.0316 147.636 31.147C146.854 31.2471 146.153 31.5492 145.531 32.0531C144.934 32.5667 144.473 33.2467 144.148 34.0931L140.135 44.5494L137.148 43.4028L143.741 26.2246L146.728 27.3712L145.696 30.06C146.67 29.2341 147.676 28.7347 148.714 28.5616C149.776 28.3981 150.867 28.5314 151.988 28.9614C153.805 29.6589 155.003 30.8183 155.58 32.4395C156.192 34.0454 156.101 35.8815 155.308 37.9479L151.152 48.7776L148.164 47.631L152.177 37.1747Z" fill="white"/>
<path d="M159.963 32.9569L167.918 37.5778L166.411 40.1719L158.456 35.5511L159.963 32.9569ZM165.771 28.9296L168.538 30.5368L156.082 51.9817L153.315 50.3744L165.771 28.9296Z" fill="white"/>
<path d="M163.902 45.5629C165.086 44.12 166.454 43.1042 168.007 42.5155C169.58 41.9437 171.185 41.7951 172.823 42.0696C174.46 42.3441 175.97 43.0481 177.351 44.1816C178.753 45.3319 179.737 46.6749 180.306 48.2106C180.894 49.7631 181.051 51.3582 180.777 52.9958C180.523 54.6502 179.804 56.199 178.62 57.6419C177.452 59.0642 176.074 60.0716 174.484 60.664C172.931 61.2527 171.336 61.4097 169.698 61.1352C168.081 60.8776 166.572 60.1736 165.17 59.0233C163.789 57.8898 162.804 56.5468 162.216 54.9942C161.627 53.4417 161.46 51.8382 161.713 50.1837C162.005 48.5255 162.734 46.9853 163.902 45.5629ZM166.406 47.6184C165.594 48.6078 165.081 49.6531 164.868 50.7541C164.674 51.8721 164.753 52.9539 165.102 53.9995C165.489 55.0414 166.146 55.943 167.074 56.7042C168.001 57.4655 169.003 57.9258 170.08 58.085C171.194 58.2405 172.271 58.1061 173.309 57.6818C174.368 57.2743 175.303 56.5759 176.115 55.5864C176.927 54.597 177.43 53.5433 177.623 52.4253C177.853 51.3037 177.775 50.2219 177.388 49.18C177.022 48.155 176.375 47.2619 175.448 46.5006C174.52 45.7393 173.508 45.2706 172.41 45.0944C171.333 44.9352 170.257 45.0696 169.181 45.4977C168.143 45.922 167.218 46.6289 166.406 47.6184Z" fill="white"/>
<path d="M126 89C126 89.7956 126.316 90.5587 126.879 91.1213C127.441 91.6839 128.204 92 129 92C129.796 92 130.559 91.6839 131.121 91.1213C131.684 90.5587 132 89.7956 132 89C132 88.2044 131.684 87.4413 131.121 86.8787C130.559 86.3161 129.796 86 129 86C128.204 86 127.441 86.3161 126.879 86.8787C126.316 87.4413 126 88.2044 126 89Z" stroke="#A1FF14" stroke-width="5" stroke-linecap="round" stroke-linejoin="round"/>
<path d="M92 138L108.667 136.2L112 129" stroke="#A1FF14" stroke-width="5" stroke-linecap="round" stroke-linejoin="round"/>
<path d="M136 138V121.478H117.882L126.118 100L108 103.304L112.941 109.913" stroke="#A1FF14" stroke-width="5" stroke-linecap="round" stroke-linejoin="round"/>
<defs>
<filter id="filter0_b_192_557" x="-21.0049" y="-20.041" width="278.579" height="278.579" filterUnits="userSpaceOnUse" color-interpolation-filters="sRGB">
<feFlood flood-opacity="0" result="BackgroundImageFix"/>
<feGaussianBlur in="BackgroundImageFix" stdDeviation="15"/>
<feComposite in2="SourceAlpha" operator="in" result="effect1_backgroundBlur_192_557"/>
<feBlend mode="normal" in="SourceGraphic" in2="effect1_backgroundBlur_192_557" result="shape"/>
</filter>
<clipPath id="clip0_192_557">
<rect width="19.789" height="19.789" fill="white" transform="translate(184.397 67.5269)"/>
</clipPath>
<clipPath id="clip1_192_557">
<rect width="19.789" height="19.789" fill="white" transform="translate(39.5776 153.879)"/>
</clipPath>
</defs>
</svg>
