<svg width="92" height="15" viewBox="0 0 92 15" fill="none" xmlns="http://www.w3.org/2000/svg">
<path d="M7.84388 12.556L11.6481 14.8569C12.3447 15.2785 13.1972 14.6552 13.0139 13.8669L12.0056 9.54021L15.3697 6.62521C15.9839 6.09354 15.6539 5.08521 14.8472 5.02104L10.4197 4.64521L8.68718 0.556875C8.37558 -0.185625 7.31218 -0.185625 7.00058 0.556875L5.26804 4.63603L0.84054 5.01188C0.0338797 5.07604 -0.29612 6.08437 0.31804 6.61603L3.68221 9.53102L2.67388 13.8577C2.49054 14.646 3.34304 15.2694 4.03971 14.8477L7.84388 12.556Z" fill="#FFBC1B"/>
<path d="M26.8439 12.556L30.6481 14.8569C31.3447 15.2785 32.1972 14.6552 32.0139 13.8669L31.0056 9.54021L34.3697 6.62521C34.9839 6.09354 34.6539 5.08521 33.8472 5.02104L29.4197 4.64521L27.6872 0.556875C27.3756 -0.185625 26.3122 -0.185625 26.0006 0.556875L24.2681 4.63603L19.8406 5.01188C19.0339 5.07604 18.7039 6.08437 19.3181 6.61603L22.6822 9.53102L21.6739 13.8577C21.4906 14.646 22.3431 15.2694 23.0397 14.8477L26.8439 12.556Z" fill="#FFBC1B"/>
<path d="M45.8439 12.556L49.6481 14.8569C50.3447 15.2785 51.1972 14.6552 51.0139 13.8669L50.0056 9.54021L53.3697 6.62521C53.9839 6.09354 53.6539 5.08521 52.8472 5.02104L48.4197 4.64521L46.6872 0.556875C46.3756 -0.185625 45.3122 -0.185625 45.0006 0.556875L43.2681 4.63603L38.8406 5.01188C38.0339 5.07604 37.7039 6.08437 38.3181 6.61603L41.6822 9.53102L40.6739 13.8577C40.4906 14.646 41.3431 15.2694 42.0397 14.8477L45.8439 12.556Z" fill="#FFBC1B"/>
<path d="M64.8439 12.556L68.6481 14.8569C69.3447 15.2785 70.1972 14.6552 70.0139 13.8669L69.0056 9.54021L72.3697 6.62521C72.9839 6.09354 72.6539 5.08521 71.8472 5.02104L67.4197 4.64521L65.6872 0.556875C65.3756 -0.185625 64.3122 -0.185625 64.0006 0.556875L62.2681 4.63603L57.8406 5.01188C57.0339 5.07604 56.7039 6.08437 57.3181 6.61603L60.6822 9.53102L59.6739 13.8577C59.4906 14.646 60.3431 15.2694 61.0397 14.8477L64.8439 12.556Z" fill="#FFBC1B"/>
<path d="M83.8439 12.556L87.6481 14.8569C88.3447 15.2785 89.1972 14.6552 89.0139 13.8669L88.0056 9.54021L91.3697 6.62521C91.9839 6.09354 91.6539 5.08521 90.8472 5.02104L86.4197 4.64521L84.6872 0.556875C84.3756 -0.185625 83.3122 -0.185625 83.0006 0.556875L81.2681 4.63603L76.8406 5.01188C76.0339 5.07604 75.7039 6.08437 76.3181 6.61603L79.6822 9.53102L78.6739 13.8577C78.4906 14.646 79.3431 15.2694 80.0397 14.8477L83.8439 12.556Z" fill="#FFBC1B"/>
</svg>
