<svg width="186" height="127" viewBox="0 0 186 127" fill="none" xmlns="http://www.w3.org/2000/svg">
<path d="M151.512 104C155.095 104 158.034 101.088 157.677 97.523C156.189 82.6626 149.616 68.6916 138.962 58.0381C126.772 45.8482 110.239 39 93 39C75.7609 39 59.2279 45.8482 47.0381 58.0381C36.3845 68.6916 29.811 82.6626 28.3233 97.523C27.9664 101.088 30.9046 104 34.4876 104C38.0705 104 40.9333 101.084 41.3789 97.529C42.8092 86.117 47.9941 75.4316 56.2129 67.2128C65.9694 57.4563 79.2021 51.9751 93 51.9751C106.798 51.9751 120.031 57.4563 129.787 67.2129C138.006 75.4316 143.191 86.117 144.621 97.5291C145.067 101.084 147.93 104 151.512 104Z" fill="#393C43"/>
<path d="M138.813 67.6019C141.618 65.3731 142.107 61.2656 139.61 58.6963C131.793 50.654 122 44.7431 111.161 41.5888C98.2381 37.8283 84.4668 38.1719 71.7477 42.5722C59.0287 46.9724 47.9891 55.2123 40.1529 66.1545C33.5802 75.3323 29.5331 86.0316 28.3573 97.1848C27.9817 100.748 30.9045 103.675 34.4875 103.694C38.0704 103.713 40.9485 100.812 41.4127 97.2592C42.5185 88.797 45.6945 80.7014 50.7019 73.7091C56.9739 64.9512 65.8097 58.3561 75.9899 54.8342C86.17 51.3123 97.1921 51.0373 107.535 54.0472C115.793 56.4502 123.293 60.8525 129.391 66.8223C131.952 69.3287 136.007 69.8308 138.813 67.6019Z" fill="#C2F13C"/>
<path d="M164.422 17.532C164.421 16.7901 164.562 16.0554 164.835 15.3699C165.108 14.6845 165.508 14.0616 166.013 13.5371C166.517 13.0125 167.117 12.5965 167.777 12.3129C168.436 12.0293 169.143 11.8836 169.857 11.8842C170.184 11.8858 170.509 11.9177 170.831 11.9795C170.697 11.7532 170.552 11.5351 170.394 11.3262C168.953 9.51164 166.435 8.11446 164.418 9.87911C164.238 10.0457 164.067 10.2229 163.907 10.4099C163.457 11.0099 163.075 11.6612 162.767 12.3514C162.73 12.4322 162.679 12.5046 162.615 12.5644C162.551 12.6243 162.476 12.6706 162.395 12.7005C162.314 12.7304 162.228 12.7434 162.142 12.7388C162.056 12.7341 161.972 12.712 161.894 12.6735C161.817 12.6351 161.747 12.5812 161.689 12.5148C161.632 12.4484 161.587 12.3709 161.558 12.2866C161.53 12.2024 161.517 12.1131 161.522 12.0238C161.526 11.9345 161.547 11.847 161.584 11.7663C161.624 11.6801 161.663 11.6029 161.707 11.5213C160.61 11.4865 159.524 11.2895 158.48 10.9361C157.695 10.6619 156.958 10.2575 156.298 9.73846C155.632 10.1591 155.041 10.6962 154.551 11.3262C152.692 13.6942 152.687 16.6655 153.578 19.4917V19.5552C154.486 22.3814 156.385 26.1194 159.41 26.8951C159.916 27.0153 160.441 27.0153 160.947 26.8951C161.528 26.7681 161.995 26.3235 162.628 26.4006C163.095 26.4551 163.501 26.7726 163.937 26.8996C164.447 27.0335 164.982 27.0335 165.492 26.8996C167.29 26.446 168.687 24.9308 169.722 23.1888C168.302 23.1544 166.951 22.5427 165.96 21.485C164.969 20.4274 164.417 19.0081 164.422 17.532Z" fill="#999999"/>
<path d="M158.066 9.26673C159.256 9.8482 160.553 10.1576 161.868 10.174C161.791 9.72775 161.672 9.29024 161.515 8.86753C160.972 7.37103 159.956 6.11058 158.633 5.29286C157.455 4.58513 156.146 4.14454 154.792 4C154.849 4.72514 155.01 5.43743 155.267 6.11391C155.786 7.49255 156.785 8.61801 158.066 9.26673Z" fill="#999999"/>
<path d="M172.791 20.5487C173.174 20.1511 173.478 19.6788 173.686 19.1588C173.894 18.6388 174 18.0813 174 17.5184C174.001 16.9547 173.894 16.3965 173.687 15.8757C173.479 15.3549 173.175 14.8818 172.791 14.4836C172.408 14.0855 171.953 13.7699 171.453 13.555C170.952 13.3401 170.416 13.2302 169.875 13.2315C169.332 13.2301 168.795 13.34 168.294 13.5548C167.793 13.7697 167.338 14.0853 166.954 14.4836C166.566 14.8822 166.258 15.3569 166.048 15.8803C165.838 16.4036 165.731 16.9651 165.732 17.532C165.731 18.0946 165.837 18.6519 166.044 19.1719C166.25 19.6918 166.554 20.1644 166.937 20.5623C167.32 20.9612 167.775 21.2775 168.276 21.4932C168.777 21.7088 169.315 21.8195 169.857 21.8189C170.403 21.82 170.943 21.7082 171.447 21.4902C171.95 21.2721 172.407 20.9521 172.791 20.5487ZM169.634 19.3058C169.518 19.4373 169.357 19.5163 169.186 19.5256C169.014 19.5349 168.846 19.4739 168.718 19.3556L167.644 18.3758C167.514 18.2562 167.434 18.088 167.423 17.908C167.411 17.7279 167.469 17.5504 167.583 17.4141C167.698 17.2789 167.86 17.1965 168.033 17.1846C168.206 17.1727 168.377 17.2323 168.508 17.3505L169.102 17.8949L171.245 15.4725C171.303 15.4068 171.373 15.3536 171.45 15.316C171.528 15.2784 171.612 15.257 171.698 15.2532C171.783 15.2494 171.869 15.2632 171.949 15.2938C172.03 15.3245 172.104 15.3713 172.166 15.4317C172.23 15.4921 172.281 15.565 172.317 15.646C172.354 15.7271 172.374 15.8148 172.378 15.9041C172.381 15.9934 172.368 16.0825 172.339 16.1665C172.309 16.2505 172.264 16.3276 172.206 16.3934L169.634 19.3058Z" fill="#999999"/>
<path d="M66.696 77.58C66.792 77.204 66.976 76.8 67.248 76.368C67.528 75.936 67.9 75.532 68.364 75.156C68.828 74.78 69.392 74.472 70.056 74.232C70.728 73.992 71.5 73.872 72.372 73.872C73.372 73.872 74.276 74.056 75.084 74.424C75.892 74.792 76.532 75.316 77.004 75.996C77.476 76.668 77.712 77.468 77.712 78.396C77.712 78.9 77.624 79.364 77.448 79.788C77.272 80.212 77.048 80.568 76.776 80.856C76.504 81.136 76.216 81.324 75.912 81.42C76.28 81.476 76.652 81.66 77.028 81.972C77.404 82.284 77.72 82.696 77.976 83.208C78.232 83.712 78.36 84.308 78.36 84.996C78.36 86.028 78.096 86.944 77.568 87.744C77.04 88.536 76.32 89.16 75.408 89.616C74.504 90.064 73.472 90.288 72.312 90.288C71.072 90.288 70.024 90.072 69.168 89.64C68.312 89.2 67.636 88.66 67.14 88.02C66.644 87.38 66.316 86.768 66.156 86.184L69.984 84.3C70.064 84.644 70.204 85.004 70.404 85.38C70.612 85.748 70.876 86.06 71.196 86.316C71.516 86.572 71.884 86.7 72.3 86.7C72.7 86.7 73.044 86.624 73.332 86.472C73.62 86.312 73.844 86.096 74.004 85.824C74.164 85.544 74.244 85.22 74.244 84.852C74.244 84.476 74.156 84.164 73.98 83.916C73.804 83.668 73.568 83.48 73.272 83.352C72.984 83.224 72.66 83.16 72.3 83.16H71.988V80.232H72.396C72.7 80.232 72.972 80.172 73.212 80.052C73.452 79.924 73.64 79.744 73.776 79.512C73.92 79.28 73.992 79.012 73.992 78.708C73.992 78.284 73.844 77.928 73.548 77.64C73.26 77.344 72.856 77.196 72.336 77.196C71.984 77.196 71.672 77.26 71.4 77.388C71.136 77.516 70.908 77.684 70.716 77.892C70.532 78.1 70.38 78.316 70.26 78.54C70.148 78.764 70.072 78.972 70.032 79.164L66.696 77.58ZM83.0016 85.176C83.0816 85.424 83.1816 85.652 83.3016 85.86C83.4216 86.06 83.5656 86.232 83.7336 86.376C83.9096 86.52 84.1136 86.632 84.3456 86.712C84.5776 86.784 84.8456 86.82 85.1496 86.82C85.7736 86.82 86.2536 86.624 86.5896 86.232C86.9256 85.832 87.0936 85.32 87.0936 84.696C87.0936 84.088 86.9296 83.608 86.6016 83.256C86.2736 82.896 85.8136 82.716 85.2216 82.716C84.8456 82.716 84.5176 82.784 84.2376 82.92C83.9656 83.048 83.7456 83.196 83.5776 83.364C83.4096 83.532 83.2936 83.684 83.2296 83.82L79.8096 82.56L81.2376 74.16H90.5256V77.772H84.7296L84.3216 80.004C84.3696 79.956 84.4936 79.888 84.6936 79.8C84.8936 79.704 85.1496 79.62 85.4616 79.548C85.7816 79.468 86.1256 79.428 86.4936 79.428C87.2696 79.428 88.0216 79.6 88.7496 79.944C89.4856 80.28 90.0936 80.82 90.5736 81.564C91.0536 82.3 91.2936 83.26 91.2936 84.444C91.3016 85.644 91.0416 86.684 90.5136 87.564C89.9856 88.436 89.2696 89.108 88.3656 89.58C87.4696 90.052 86.4536 90.288 85.3176 90.288C84.4536 90.288 83.6896 90.188 83.0256 89.988C82.3616 89.78 81.7936 89.508 81.3216 89.172C80.8496 88.836 80.4576 88.456 80.1456 88.032C79.8336 87.6 79.5936 87.16 79.4256 86.712L83.0016 85.176ZM99.8357 79.356C100.644 79.356 101.428 79.564 102.188 79.98C102.948 80.396 103.576 81 104.072 81.792C104.576 82.584 104.828 83.536 104.828 84.648C104.828 85.744 104.556 86.716 104.012 87.564C103.476 88.412 102.752 89.08 101.84 89.568C100.928 90.048 99.9197 90.288 98.8157 90.288C97.7037 90.288 96.6877 90.064 95.7677 89.616C94.8557 89.168 94.1237 88.516 93.5717 87.66C93.0277 86.796 92.7557 85.756 92.7557 84.54C92.7557 83.172 92.9717 82.032 93.4037 81.12C93.8437 80.2 94.3317 79.416 94.8677 78.768L98.6717 74.16H103.532L98.7797 79.632C98.8437 79.56 98.9597 79.496 99.1277 79.44C99.2957 79.384 99.5317 79.356 99.8357 79.356ZM98.7917 86.904C99.1837 86.904 99.5397 86.812 99.8597 86.628C100.18 86.436 100.432 86.18 100.616 85.86C100.808 85.532 100.904 85.172 100.904 84.78C100.904 84.396 100.808 84.044 100.616 83.724C100.432 83.404 100.18 83.148 99.8597 82.956C99.5397 82.764 99.1837 82.668 98.7917 82.668C98.4077 82.668 98.0517 82.764 97.7237 82.956C97.3957 83.148 97.1357 83.404 96.9437 83.724C96.7597 84.044 96.6677 84.396 96.6677 84.78C96.6677 85.172 96.7597 85.532 96.9437 85.86C97.1357 86.18 97.3957 86.436 97.7237 86.628C98.0517 86.812 98.4077 86.904 98.7917 86.904ZM106.205 82.092C106.205 80.732 106.381 79.54 106.733 78.516C107.085 77.484 107.569 76.624 108.185 75.936C108.809 75.248 109.517 74.732 110.309 74.388C111.101 74.044 111.937 73.872 112.817 73.872C113.713 73.872 114.557 74.044 115.349 74.388C116.141 74.732 116.841 75.248 117.449 75.936C118.065 76.624 118.549 77.484 118.901 78.516C119.253 79.54 119.429 80.732 119.429 82.092C119.429 83.572 119.253 84.832 118.901 85.872C118.549 86.912 118.065 87.756 117.449 88.404C116.841 89.052 116.141 89.528 115.349 89.832C114.557 90.136 113.713 90.288 112.817 90.288C111.937 90.288 111.101 90.136 110.309 89.832C109.517 89.528 108.809 89.052 108.185 88.404C107.569 87.756 107.085 86.912 106.733 85.872C106.381 84.832 106.205 83.572 106.205 82.092ZM110.381 82.092C110.381 83.132 110.473 83.988 110.657 84.66C110.849 85.324 111.125 85.82 111.485 86.148C111.845 86.468 112.289 86.628 112.817 86.628C113.353 86.628 113.801 86.468 114.161 86.148C114.521 85.82 114.789 85.32 114.965 84.648C115.149 83.976 115.241 83.124 115.241 82.092C115.241 81.14 115.149 80.328 114.965 79.656C114.789 78.976 114.521 78.452 114.161 78.084C113.801 77.716 113.353 77.532 112.817 77.532C112.289 77.532 111.845 77.716 111.485 78.084C111.125 78.452 110.849 78.976 110.657 79.656C110.473 80.336 110.381 81.148 110.381 82.092Z" fill="white"/>
<path d="M85.976 97.968L89.138 102H87.626L84.836 98.4V102H83.57V94.08H84.836V97.59L87.434 94.08H88.874L85.976 97.968ZM92.024 101.106C92.308 101.106 92.538 101.06 92.714 100.968C92.894 100.872 93.01 100.802 93.062 100.758L93.668 101.658C93.62 101.698 93.52 101.758 93.368 101.838C93.216 101.914 93.022 101.984 92.786 102.048C92.554 102.112 92.29 102.144 91.994 102.144C91.506 102.144 91.062 102.042 90.662 101.838C90.266 101.63 89.948 101.332 89.708 100.944C89.472 100.552 89.354 100.082 89.354 99.534C89.354 98.982 89.472 98.512 89.708 98.124C89.948 97.736 90.266 97.44 90.662 97.236C91.062 97.032 91.506 96.93 91.994 96.93C92.286 96.93 92.546 96.964 92.774 97.032C93.006 97.096 93.198 97.17 93.35 97.254C93.502 97.338 93.604 97.404 93.656 97.452L93.038 98.352C93.01 98.324 92.952 98.28 92.864 98.22C92.78 98.156 92.668 98.098 92.528 98.046C92.388 97.994 92.22 97.968 92.024 97.968C91.784 97.968 91.554 98.032 91.334 98.16C91.114 98.288 90.934 98.47 90.794 98.706C90.654 98.938 90.584 99.214 90.584 99.534C90.584 99.854 90.654 100.132 90.794 100.368C90.934 100.604 91.114 100.786 91.334 100.914C91.554 101.042 91.784 101.106 92.024 101.106ZM98.5216 102V101.088C98.4896 101.184 98.3976 101.316 98.2456 101.484C98.0976 101.652 97.8936 101.804 97.6336 101.94C97.3776 102.076 97.0736 102.144 96.7216 102.144C96.2616 102.144 95.8476 102.034 95.4796 101.814C95.1116 101.594 94.8216 101.288 94.6096 100.896C94.3976 100.504 94.2916 100.052 94.2916 99.54C94.2916 99.028 94.3976 98.576 94.6096 98.184C94.8216 97.792 95.1116 97.486 95.4796 97.266C95.8476 97.042 96.2616 96.93 96.7216 96.93C97.0656 96.93 97.3636 96.99 97.6156 97.11C97.8676 97.23 98.0696 97.368 98.2216 97.524C98.3776 97.68 98.4736 97.816 98.5096 97.932V97.074H99.7816V102H98.5216ZM95.5576 99.54C95.5576 99.856 95.6276 100.132 95.7676 100.368C95.9076 100.604 96.0896 100.786 96.3136 100.914C96.5416 101.042 96.7856 101.106 97.0456 101.106C97.3256 101.106 97.5736 101.04 97.7896 100.908C98.0096 100.776 98.1816 100.594 98.3056 100.362C98.4336 100.126 98.4976 99.852 98.4976 99.54C98.4976 99.228 98.4336 98.956 98.3056 98.724C98.1816 98.488 98.0096 98.304 97.7896 98.172C97.5736 98.036 97.3256 97.968 97.0456 97.968C96.7856 97.968 96.5416 98.034 96.3136 98.166C96.0896 98.294 95.9076 98.476 95.7676 98.712C95.6276 98.948 95.5576 99.224 95.5576 99.54ZM102.41 102H101.12V93.744H102.41V102Z" fill="#BFBFBF"/>
<path d="M24.04 8.12V20H20.908V13.61L21.043 11.369L20.53 13.97L18.865 18.938H15.805L14.149 13.97L13.645 11.369L13.771 13.61V20H10.648V8.12H15.094L17.155 15.509L17.344 16.58L17.524 15.509L19.585 8.12H24.04ZM28.6933 16.949C28.7173 17.147 28.7953 17.321 28.9273 17.471C29.0653 17.615 29.2453 17.729 29.4673 17.813C29.6953 17.891 29.9623 17.93 30.2683 17.93C30.5683 17.93 30.8503 17.909 31.1143 17.867C31.3783 17.819 31.6123 17.756 31.8163 17.678C32.0263 17.6 32.1913 17.513 32.3113 17.417L33.4903 19.397C33.3583 19.511 33.1603 19.631 32.8963 19.757C32.6323 19.883 32.2693 19.991 31.8073 20.081C31.3513 20.171 30.7663 20.216 30.0523 20.216C29.2243 20.216 28.4803 20.069 27.8203 19.775C27.1603 19.481 26.6383 19.04 26.2543 18.452C25.8703 17.858 25.6783 17.117 25.6783 16.229C25.6783 15.509 25.8403 14.861 26.1643 14.285C26.4883 13.703 26.9563 13.244 27.5683 12.908C28.1803 12.566 28.9213 12.395 29.7913 12.395C30.6253 12.395 31.3483 12.542 31.9603 12.836C32.5723 13.124 33.0433 13.562 33.3733 14.15C33.7033 14.738 33.8683 15.482 33.8683 16.382C33.8683 16.43 33.8653 16.526 33.8593 16.67C33.8593 16.814 33.8533 16.907 33.8413 16.949H28.6933ZM30.8713 15.509C30.8653 15.311 30.8203 15.134 30.7363 14.978C30.6583 14.822 30.5443 14.699 30.3943 14.609C30.2443 14.519 30.0613 14.474 29.8453 14.474C29.6353 14.474 29.4493 14.516 29.2873 14.6C29.1253 14.684 28.9993 14.804 28.9093 14.96C28.8193 15.11 28.7683 15.293 28.7563 15.509H30.8713ZM34.5403 12.611H35.7283V9.578H38.8783V12.611H40.4443V15.212H38.8783V16.652C38.8783 16.91 38.9113 17.132 38.9773 17.318C39.0493 17.498 39.1993 17.588 39.4273 17.588C39.5653 17.588 39.6883 17.558 39.7963 17.498C39.9043 17.432 39.9703 17.387 39.9943 17.363L41.0563 19.613C41.0083 19.649 40.8613 19.718 40.6153 19.82C40.3753 19.916 40.0693 20.006 39.6973 20.09C39.3313 20.174 38.9233 20.216 38.4733 20.216C37.6753 20.216 37.0183 19.997 36.5023 19.559C35.9863 19.115 35.7283 18.434 35.7283 17.516V15.212H34.5403V12.611ZM47.5899 20V18.893C47.5299 19.007 47.3949 19.172 47.1849 19.388C46.9749 19.598 46.6959 19.79 46.3479 19.964C46.0059 20.132 45.6039 20.216 45.1419 20.216C44.4099 20.216 43.7769 20.036 43.2429 19.676C42.7089 19.316 42.2949 18.839 42.0009 18.245C41.7129 17.651 41.5689 17.006 41.5689 16.31C41.5689 15.614 41.7129 14.969 42.0009 14.375C42.2949 13.781 42.7089 13.304 43.2429 12.944C43.7769 12.578 44.4099 12.395 45.1419 12.395C45.5799 12.395 45.9609 12.461 46.2849 12.593C46.6149 12.725 46.8849 12.881 47.0949 13.061C47.3109 13.241 47.4639 13.412 47.5539 13.574V12.611H50.7219V20H47.5899ZM44.6919 16.31C44.6919 16.574 44.7549 16.817 44.8809 17.039C45.0069 17.255 45.1779 17.426 45.3939 17.552C45.6099 17.678 45.8559 17.741 46.1319 17.741C46.4079 17.741 46.6509 17.678 46.8609 17.552C47.0769 17.426 47.2449 17.255 47.3649 17.039C47.4909 16.817 47.5539 16.574 47.5539 16.31C47.5539 16.046 47.4909 15.806 47.3649 15.59C47.2449 15.368 47.0769 15.194 46.8609 15.068C46.6509 14.936 46.4079 14.87 46.1319 14.87C45.8559 14.87 45.6099 14.936 45.3939 15.068C45.1779 15.194 45.0069 15.368 44.8809 15.59C44.7549 15.806 44.6919 16.046 44.6919 16.31ZM57.2313 8.12H61.1013C62.3673 8.12 63.4173 8.375 64.2513 8.885C65.0913 9.389 65.7213 10.088 66.1413 10.982C66.5613 11.876 66.7713 12.899 66.7713 14.051C66.7713 15.209 66.5613 16.235 66.1413 17.129C65.7213 18.023 65.0913 18.725 64.2513 19.235C63.4173 19.745 62.3673 20 61.1013 20H57.2313V8.12ZM60.3633 10.883V17.237H60.8223C61.3983 17.237 61.8783 17.099 62.2623 16.823C62.6523 16.541 62.9463 16.16 63.1443 15.68C63.3483 15.2 63.4503 14.663 63.4503 14.069C63.4503 13.469 63.3513 12.929 63.1533 12.449C62.9553 11.969 62.6613 11.588 62.2713 11.306C61.8813 11.024 61.3983 10.883 60.8223 10.883H60.3633ZM68.2978 20V12.611H71.4748V20H68.2978ZM69.9268 11.477C69.4408 11.477 69.0268 11.306 68.6848 10.964C68.3488 10.622 68.1808 10.214 68.1808 9.74C68.1808 9.266 68.3488 8.855 68.6848 8.507C69.0268 8.159 69.4408 7.985 69.9268 7.985C70.2448 7.985 70.5358 8.066 70.7998 8.228C71.0638 8.384 71.2768 8.594 71.4388 8.858C71.6008 9.122 71.6818 9.416 71.6818 9.74C71.6818 10.214 71.5078 10.622 71.1598 10.964C70.8178 11.306 70.4068 11.477 69.9268 11.477ZM78.8262 20V18.893C78.7662 19.007 78.6312 19.172 78.4212 19.388C78.2112 19.598 77.9322 19.79 77.5842 19.964C77.2422 20.132 76.8402 20.216 76.3782 20.216C75.6462 20.216 75.0132 20.036 74.4792 19.676C73.9452 19.316 73.5312 18.839 73.2372 18.245C72.9492 17.651 72.8052 17.006 72.8052 16.31C72.8052 15.614 72.9492 14.969 73.2372 14.375C73.5312 13.781 73.9452 13.304 74.4792 12.944C75.0132 12.578 75.6462 12.395 76.3782 12.395C76.8162 12.395 77.1972 12.461 77.5212 12.593C77.8512 12.725 78.1212 12.881 78.3312 13.061C78.5472 13.241 78.7002 13.412 78.7902 13.574V12.611H81.9582V20H78.8262ZM75.9282 16.31C75.9282 16.574 75.9912 16.817 76.1172 17.039C76.2432 17.255 76.4142 17.426 76.6302 17.552C76.8462 17.678 77.0922 17.741 77.3682 17.741C77.6442 17.741 77.8872 17.678 78.0972 17.552C78.3132 17.426 78.4812 17.255 78.6012 17.039C78.7272 16.817 78.7902 16.574 78.7902 16.31C78.7902 16.046 78.7272 15.806 78.6012 15.59C78.4812 15.368 78.3132 15.194 78.0972 15.068C77.8872 14.936 77.6442 14.87 77.3682 14.87C77.0922 14.87 76.8462 14.936 76.6302 15.068C76.4142 15.194 76.2432 15.368 76.1172 15.59C75.9912 15.806 75.9282 16.046 75.9282 16.31ZM76.3332 11.864L75.4332 10.622L78.4302 7.994L79.8882 9.83L76.3332 11.864ZM86.4339 20H83.2479V12.611H86.4339V13.7H86.3889C86.4489 13.568 86.5689 13.4 86.7489 13.196C86.9349 12.992 87.1929 12.809 87.5229 12.647C87.8589 12.479 88.2759 12.395 88.7739 12.395C89.1099 12.395 89.4279 12.449 89.7279 12.557C90.0279 12.665 90.2469 12.77 90.3849 12.872L89.1609 15.455C89.0829 15.341 88.9359 15.227 88.7199 15.113C88.5039 14.993 88.2369 14.933 87.9189 14.933C87.5589 14.933 87.2679 15.014 87.0459 15.176C86.8299 15.332 86.6739 15.527 86.5779 15.761C86.4819 15.995 86.4339 16.22 86.4339 16.436V20ZM91.079 20V12.611H94.256V20H91.079ZM92.708 11.477C92.222 11.477 91.808 11.306 91.466 10.964C91.13 10.622 90.962 10.214 90.962 9.74C90.962 9.266 91.13 8.855 91.466 8.507C91.808 8.159 92.222 7.985 92.708 7.985C93.026 7.985 93.317 8.066 93.581 8.228C93.845 8.384 94.058 8.594 94.22 8.858C94.382 9.122 94.463 9.416 94.463 9.74C94.463 10.214 94.289 10.622 93.941 10.964C93.599 11.306 93.188 11.477 92.708 11.477ZM101.607 20V18.893C101.547 19.007 101.412 19.172 101.202 19.388C100.992 19.598 100.713 19.79 100.365 19.964C100.023 20.132 99.6215 20.216 99.1595 20.216C98.4275 20.216 97.7945 20.036 97.2605 19.676C96.7265 19.316 96.3125 18.839 96.0185 18.245C95.7305 17.651 95.5865 17.006 95.5865 16.31C95.5865 15.614 95.7305 14.969 96.0185 14.375C96.3125 13.781 96.7265 13.304 97.2605 12.944C97.7945 12.578 98.4275 12.395 99.1595 12.395C99.5975 12.395 99.9785 12.461 100.302 12.593C100.632 12.725 100.902 12.881 101.112 13.061C101.328 13.241 101.481 13.412 101.571 13.574V12.611H104.739V20H101.607ZM98.7095 16.31C98.7095 16.574 98.7725 16.817 98.8985 17.039C99.0245 17.255 99.1955 17.426 99.4115 17.552C99.6275 17.678 99.8735 17.741 100.149 17.741C100.425 17.741 100.668 17.678 100.878 17.552C101.094 17.426 101.262 17.255 101.382 17.039C101.508 16.817 101.571 16.574 101.571 16.31C101.571 16.046 101.508 15.806 101.382 15.59C101.262 15.368 101.094 15.194 100.878 15.068C100.668 14.936 100.425 14.87 100.149 14.87C99.8735 14.87 99.6275 14.936 99.4115 15.068C99.1955 15.194 99.0245 15.368 98.8985 15.59C98.7725 15.806 98.7095 16.046 98.7095 16.31Z" fill="white"/>
</svg>
