<svg width="179" height="108" viewBox="0 0 179 108" fill="none" xmlns="http://www.w3.org/2000/svg">
<path d="M63.981 14.12H65.763L58.329 26H56.547L63.981 14.12ZM54.468 16.739C54.468 16.217 54.6 15.743 54.864 15.317C55.128 14.885 55.494 14.543 55.962 14.291C56.436 14.033 56.985 13.904 57.609 13.904C58.227 13.904 58.77 14.033 59.238 14.291C59.706 14.543 60.072 14.885 60.336 15.317C60.6 15.743 60.732 16.217 60.732 16.739C60.732 17.249 60.6 17.72 60.336 18.152C60.078 18.578 59.715 18.923 59.247 19.187C58.779 19.445 58.233 19.574 57.609 19.574C56.979 19.574 56.427 19.445 55.953 19.187C55.485 18.923 55.119 18.578 54.855 18.152C54.597 17.72 54.468 17.249 54.468 16.739ZM56.322 16.739C56.322 17.129 56.439 17.444 56.673 17.684C56.913 17.924 57.222 18.044 57.6 18.044C57.972 18.044 58.272 17.924 58.5 17.684C58.734 17.444 58.851 17.129 58.851 16.739C58.851 16.355 58.734 16.04 58.5 15.794C58.272 15.542 57.972 15.416 57.6 15.416C57.228 15.416 56.922 15.542 56.682 15.794C56.442 16.04 56.322 16.355 56.322 16.739ZM61.551 23.381C61.551 22.859 61.683 22.385 61.947 21.959C62.211 21.533 62.58 21.191 63.054 20.933C63.528 20.675 64.074 20.546 64.692 20.546C65.31 20.546 65.853 20.675 66.321 20.933C66.795 21.191 67.164 21.533 67.428 21.959C67.692 22.385 67.824 22.859 67.824 23.381C67.824 23.891 67.692 24.362 67.428 24.794C67.17 25.226 66.804 25.571 66.33 25.829C65.862 26.087 65.316 26.216 64.692 26.216C64.062 26.216 63.51 26.087 63.036 25.829C62.568 25.571 62.202 25.226 61.938 24.794C61.68 24.362 61.551 23.891 61.551 23.381ZM63.414 23.381C63.414 23.771 63.531 24.086 63.765 24.326C63.999 24.566 64.308 24.686 64.692 24.686C65.058 24.686 65.355 24.566 65.583 24.326C65.817 24.086 65.934 23.771 65.934 23.381C65.934 22.997 65.817 22.682 65.583 22.436C65.355 22.184 65.058 22.058 64.692 22.058C64.314 22.058 64.005 22.184 63.765 22.436C63.531 22.682 63.414 22.997 63.414 23.381Z" fill="#D0D0D0"/>
<g clip-path="url(#clip0_19_224)">
<path d="M167.693 5.43152C166.612 6.82769 165.645 8.27144 164.576 10.086C164.034 11.008 163.747 11.5199 163.385 12.2188C162.116 14.6699 161.265 16.9454 161.039 18.486C160.998 18.7698 160.998 19.3883 161.041 19.7164C161.148 20.5745 161.401 21.3702 161.817 22.161C162.205 22.8993 162.675 23.5194 163.295 24.1051C164.65 25.3848 166.388 26.0443 168.28 25.9951C169.295 25.9689 170.165 25.7671 171.033 25.3553C171.697 25.0403 172.226 24.6744 172.776 24.1461C173.362 23.5834 173.809 22.9846 174.191 22.2479C174.789 21.0946 175.09 19.6902 174.975 18.6041C174.772 16.7207 173.561 13.6035 171.95 10.8177C171.131 9.40183 170.182 7.91051 169.388 6.79652C168.953 6.18621 168.085 5.03777 168.036 5.00988C168.031 5.0066 167.874 5.19527 167.693 5.43152Z" fill="#919191"/>
</g>
<path d="M17.534 94.76V104H16.064V97.707L16.134 96.524L15.854 97.854L13.831 103.412H12.382L10.366 97.854L10.086 96.524L10.156 97.707V104H8.686V94.76H10.695L13.005 101.676L13.11 102.229L13.208 101.676L15.532 94.76H17.534ZM20.4134 101.48C20.4227 101.783 20.4951 102.056 20.6304 102.299C20.7657 102.542 20.9641 102.733 21.2254 102.873C21.4914 103.008 21.8157 103.076 22.1984 103.076C22.5297 103.076 22.8144 103.032 23.0524 102.943C23.2951 102.85 23.4957 102.74 23.6544 102.614C23.8131 102.483 23.9297 102.362 24.0044 102.25L24.6694 103.153C24.5247 103.349 24.3427 103.524 24.1234 103.678C23.9041 103.832 23.6311 103.951 23.3044 104.035C22.9824 104.124 22.5834 104.168 22.1074 104.168C21.4821 104.168 20.9384 104.04 20.4764 103.783C20.0144 103.526 19.6551 103.165 19.3984 102.698C19.1464 102.231 19.0204 101.685 19.0204 101.06C19.0204 100.5 19.1371 99.996 19.3704 99.548C19.6037 99.0953 19.9421 98.7383 20.3854 98.477C20.8334 98.2157 21.3701 98.085 21.9954 98.085C22.5787 98.085 23.0851 98.2017 23.5144 98.435C23.9437 98.6683 24.2751 99.0043 24.5084 99.443C24.7464 99.877 24.8654 100.402 24.8654 101.018C24.8654 101.055 24.8631 101.132 24.8584 101.249C24.8584 101.366 24.8537 101.443 24.8444 101.48H20.4134ZM23.4654 100.388C23.4607 100.239 23.4094 100.068 23.3114 99.877C23.2181 99.6857 23.0664 99.52 22.8564 99.38C22.6464 99.2353 22.3664 99.163 22.0164 99.163C21.6571 99.163 21.3654 99.233 21.1414 99.373C20.9174 99.5083 20.7517 99.6717 20.6444 99.863C20.5371 100.05 20.4741 100.225 20.4554 100.388H23.4654ZM25.6483 98.253H26.7263V95.894H28.2103V98.253H29.6313V99.513H28.2103V101.97C28.2103 102.278 28.2616 102.509 28.3643 102.663C28.4716 102.817 28.6233 102.894 28.8193 102.894C28.9826 102.894 29.111 102.864 29.2043 102.803C29.3023 102.742 29.3606 102.7 29.3793 102.677L29.9323 103.762C29.9043 103.79 29.8226 103.837 29.6873 103.902C29.552 103.967 29.377 104.028 29.1623 104.084C28.9476 104.14 28.7026 104.168 28.4273 104.168C27.942 104.168 27.536 104.023 27.2093 103.734C26.8873 103.445 26.7263 102.992 26.7263 102.376V99.513H25.6483V98.253ZM35.4738 104V102.936C35.4365 103.048 35.3291 103.202 35.1518 103.398C34.9791 103.594 34.7411 103.771 34.4378 103.93C34.1391 104.089 33.7845 104.168 33.3738 104.168C32.8371 104.168 32.3541 104.04 31.9248 103.783C31.4955 103.526 31.1571 103.169 30.9098 102.712C30.6625 102.255 30.5388 101.727 30.5388 101.13C30.5388 100.533 30.6625 100.005 30.9098 99.548C31.1571 99.0907 31.4955 98.7337 31.9248 98.477C32.3541 98.2157 32.8371 98.085 33.3738 98.085C33.7751 98.085 34.1228 98.155 34.4168 98.295C34.7108 98.435 34.9465 98.596 35.1238 98.778C35.3058 98.96 35.4178 99.1187 35.4598 99.254V98.253H36.9438V104H35.4738ZM32.0158 101.13C32.0158 101.499 32.0975 101.821 32.2608 102.096C32.4241 102.371 32.6365 102.584 32.8978 102.733C33.1638 102.882 33.4485 102.957 33.7518 102.957C34.0785 102.957 34.3678 102.88 34.6198 102.726C34.8765 102.572 35.0771 102.36 35.2218 102.089C35.3711 101.814 35.4458 101.494 35.4458 101.13C35.4458 100.766 35.3711 100.449 35.2218 100.178C35.0771 99.9027 34.8765 99.688 34.6198 99.534C34.3678 99.3753 34.0785 99.296 33.7518 99.296C33.4485 99.296 33.1638 99.373 32.8978 99.527C32.6365 99.6763 32.4241 99.8887 32.2608 100.164C32.0975 100.439 32.0158 100.761 32.0158 101.13ZM42.0457 94.76H44.4047C45.3894 94.76 46.2014 94.9583 46.8407 95.355C47.48 95.747 47.956 96.2907 48.2687 96.986C48.5814 97.6813 48.7377 98.477 48.7377 99.373C48.7377 100.274 48.5814 101.072 48.2687 101.767C47.9607 102.462 47.487 103.008 46.8477 103.405C46.2084 103.802 45.394 104 44.4047 104H42.0457V94.76ZM43.5087 96.09V102.67H44.2787C44.946 102.67 45.492 102.53 45.9167 102.25C46.346 101.965 46.6634 101.576 46.8687 101.081C47.074 100.586 47.179 100.022 47.1837 99.387C47.1884 98.7523 47.088 98.1877 46.8827 97.693C46.6774 97.1937 46.3577 96.8017 45.9237 96.517C45.4944 96.2323 44.946 96.09 44.2787 96.09H43.5087ZM51.1751 101.48C51.1845 101.783 51.2568 102.056 51.3921 102.299C51.5275 102.542 51.7258 102.733 51.9871 102.873C52.2531 103.008 52.5775 103.076 52.9601 103.076C53.2915 103.076 53.5761 103.032 53.8141 102.943C54.0568 102.85 54.2575 102.74 54.4161 102.614C54.5748 102.483 54.6915 102.362 54.7661 102.25L55.4311 103.153C55.2865 103.349 55.1045 103.524 54.8851 103.678C54.6658 103.832 54.3928 103.951 54.0661 104.035C53.7441 104.124 53.3451 104.168 52.8691 104.168C52.2438 104.168 51.7001 104.04 51.2381 103.783C50.7761 103.526 50.4168 103.165 50.1601 102.698C49.9081 102.231 49.7821 101.685 49.7821 101.06C49.7821 100.5 49.8988 99.996 50.1321 99.548C50.3655 99.0953 50.7038 98.7383 51.1471 98.477C51.5951 98.2157 52.1318 98.085 52.7571 98.085C53.3405 98.085 53.8468 98.2017 54.2761 98.435C54.7055 98.6683 55.0368 99.0043 55.2701 99.443C55.5081 99.877 55.6271 100.402 55.6271 101.018C55.6271 101.055 55.6248 101.132 55.6201 101.249C55.6201 101.366 55.6155 101.443 55.6061 101.48H51.1751ZM54.2271 100.388C54.2225 100.239 54.1711 100.068 54.0731 99.877C53.9798 99.6857 53.8281 99.52 53.6181 99.38C53.4081 99.2353 53.1281 99.163 52.7781 99.163C52.4188 99.163 52.1271 99.233 51.9031 99.373C51.6791 99.5083 51.5135 99.6717 51.4061 99.863C51.2988 100.05 51.2358 100.225 51.2171 100.388H54.2271ZM65.0817 102.712C65.6137 102.712 66.0781 102.64 66.4747 102.495C66.8761 102.346 67.1677 102.199 67.3497 102.054L67.9797 103.314C67.7697 103.501 67.4034 103.69 66.8807 103.881C66.3581 104.072 65.7327 104.168 65.0047 104.168C64.3234 104.168 63.6887 104.047 63.1007 103.804C62.5127 103.561 61.9971 103.225 61.5537 102.796C61.1104 102.362 60.7651 101.856 60.5177 101.277C60.2704 100.698 60.1467 100.071 60.1467 99.394C60.1467 98.7173 60.2704 98.0873 60.5177 97.504C60.7651 96.9207 61.1081 96.412 61.5467 95.978C61.9901 95.544 62.5057 95.2057 63.0937 94.963C63.6864 94.7157 64.3234 94.592 65.0047 94.592C65.7327 94.592 66.3581 94.6877 66.8807 94.879C67.4034 95.0703 67.7697 95.2593 67.9797 95.446L67.3497 96.706C67.1677 96.5613 66.8761 96.4167 66.4747 96.272C66.0781 96.1227 65.6137 96.048 65.0817 96.048C64.5777 96.048 64.1204 96.132 63.7097 96.3C63.2991 96.468 62.9467 96.7037 62.6527 97.007C62.3587 97.3103 62.1324 97.665 61.9737 98.071C61.8151 98.4723 61.7357 98.9063 61.7357 99.373C61.7357 99.8443 61.8151 100.283 61.9737 100.689C62.1324 101.095 62.3587 101.45 62.6527 101.753C62.9467 102.056 63.2991 102.292 63.7097 102.46C64.1204 102.628 64.5777 102.712 65.0817 102.712ZM72.0921 104.168C71.4901 104.168 70.9534 104.037 70.4821 103.776C70.0154 103.51 69.6491 103.151 69.3831 102.698C69.1171 102.241 68.9841 101.723 68.9841 101.144C68.9841 100.565 69.1171 100.045 69.3831 99.583C69.6491 99.121 70.0154 98.757 70.4821 98.491C70.9534 98.2203 71.4901 98.085 72.0921 98.085C72.6941 98.085 73.2261 98.2203 73.6881 98.491C74.1501 98.757 74.5118 99.121 74.7731 99.583C75.0391 100.045 75.1721 100.565 75.1721 101.144C75.1721 101.723 75.0391 102.241 74.7731 102.698C74.5118 103.151 74.1501 103.51 73.6881 103.776C73.2261 104.037 72.6941 104.168 72.0921 104.168ZM72.0921 102.908C72.4281 102.908 72.7198 102.831 72.9671 102.677C73.2144 102.523 73.4058 102.313 73.5411 102.047C73.6764 101.781 73.7441 101.478 73.7441 101.137C73.7441 100.796 73.6764 100.493 73.5411 100.227C73.4058 99.9563 73.2144 99.7417 72.9671 99.583C72.7198 99.4243 72.4281 99.345 72.0921 99.345C71.7561 99.345 71.4621 99.4243 71.2101 99.583C70.9628 99.7417 70.7691 99.9563 70.6291 100.227C70.4938 100.493 70.4261 100.796 70.4261 101.137C70.4261 101.478 70.4938 101.781 70.6291 102.047C70.7691 102.313 70.9628 102.523 71.2101 102.677C71.4621 102.831 71.7561 102.908 72.0921 102.908ZM79.8741 98.085C80.2615 98.085 80.6371 98.1643 81.0011 98.323C81.3651 98.4817 81.6638 98.736 81.8971 99.086C82.1351 99.4313 82.2541 99.8817 82.2541 100.437V104H80.7491V100.71C80.7491 100.192 80.6255 99.8117 80.3781 99.569C80.1355 99.3217 79.8205 99.198 79.4331 99.198C79.1765 99.198 78.9315 99.2703 78.6981 99.415C78.4648 99.5597 78.2735 99.7557 78.1241 100.003C77.9795 100.25 77.9071 100.535 77.9071 100.857V104H76.4091V98.253H77.9071V99.219C77.9491 99.0603 78.0611 98.8947 78.2431 98.722C78.4298 98.5447 78.6655 98.3953 78.9501 98.274C79.2348 98.148 79.5428 98.085 79.8741 98.085ZM86.0336 98.085C86.3556 98.085 86.6543 98.1153 86.9296 98.176C87.2049 98.2367 87.4406 98.309 87.6366 98.393C87.8326 98.477 87.9679 98.547 88.0426 98.603L87.4966 99.527C87.4033 99.4477 87.2353 99.3567 86.9926 99.254C86.7546 99.1513 86.4863 99.1 86.1876 99.1C85.8889 99.1 85.6369 99.1537 85.4316 99.261C85.2263 99.3683 85.1236 99.5293 85.1236 99.744C85.1236 99.954 85.2309 100.122 85.4456 100.248C85.6649 100.374 85.9613 100.479 86.3346 100.563C86.6426 100.633 86.9366 100.731 87.2166 100.857C87.4966 100.978 87.7253 101.153 87.9026 101.382C88.0846 101.606 88.1756 101.907 88.1756 102.285C88.1756 102.644 88.0986 102.945 87.9446 103.188C87.7953 103.426 87.5946 103.617 87.3426 103.762C87.0906 103.907 86.8106 104.009 86.5026 104.07C86.1993 104.135 85.8936 104.168 85.5856 104.168C85.2076 104.168 84.8693 104.131 84.5706 104.056C84.2766 103.981 84.0316 103.895 83.8356 103.797C83.6396 103.694 83.4996 103.608 83.4156 103.538L83.9616 102.502C84.0829 102.619 84.2813 102.742 84.5566 102.873C84.8319 102.999 85.1399 103.062 85.4806 103.062C85.8446 103.062 86.1363 102.992 86.3556 102.852C86.5749 102.712 86.6846 102.525 86.6846 102.292C86.6846 102.119 86.6309 101.979 86.5236 101.872C86.4209 101.765 86.2786 101.678 86.0966 101.613C85.9146 101.548 85.7116 101.489 85.4876 101.438C85.2776 101.387 85.0653 101.321 84.8506 101.242C84.6406 101.158 84.4469 101.051 84.2696 100.92C84.0923 100.785 83.9499 100.617 83.8426 100.416C83.7353 100.215 83.6816 99.9797 83.6816 99.709C83.6816 99.3637 83.7913 99.0697 84.0106 98.827C84.2299 98.5843 84.5193 98.4 84.8786 98.274C85.2379 98.148 85.6229 98.085 86.0336 98.085ZM90.9145 101.074C90.9145 101.634 91.0288 102.08 91.2575 102.411C91.4908 102.742 91.8571 102.908 92.3565 102.908C92.8605 102.908 93.2268 102.742 93.4555 102.411C93.6841 102.08 93.7985 101.634 93.7985 101.074V98.253H95.2825V101.263C95.2825 101.842 95.1681 102.35 94.9395 102.789C94.7108 103.223 94.3795 103.561 93.9455 103.804C93.5115 104.047 92.9818 104.168 92.3565 104.168C91.7358 104.168 91.2085 104.047 90.7745 103.804C90.3405 103.561 90.0091 103.223 89.7805 102.789C89.5518 102.35 89.4375 101.842 89.4375 101.263V98.253H90.9145V101.074ZM104.039 98.085C104.468 98.085 104.837 98.176 105.145 98.358C105.457 98.54 105.698 98.82 105.866 99.198C106.038 99.576 106.125 100.059 106.125 100.647V104H104.648V100.913C104.648 100.358 104.568 99.9353 104.41 99.646C104.256 99.3567 103.964 99.212 103.535 99.212C103.301 99.212 103.082 99.275 102.877 99.401C102.671 99.527 102.506 99.716 102.38 99.968C102.258 100.215 102.198 100.53 102.198 100.913V104H100.812V100.913C100.812 100.358 100.716 99.9353 100.525 99.646C100.338 99.3567 100.058 99.212 99.6846 99.212C99.4466 99.212 99.2272 99.2727 99.0266 99.394C98.8259 99.5153 98.6649 99.702 98.5436 99.954C98.4222 100.206 98.3616 100.526 98.3616 100.913V104H96.8776V98.253H98.3616V99.114C98.4129 98.9693 98.5272 98.8177 98.7046 98.659C98.8866 98.5003 99.1129 98.365 99.3836 98.253C99.6542 98.141 99.9506 98.085 100.273 98.085C100.623 98.085 100.912 98.1503 101.141 98.281C101.374 98.407 101.558 98.5657 101.694 98.757C101.834 98.9483 101.936 99.1397 102.002 99.331C102.067 99.1397 102.193 98.9483 102.38 98.757C102.571 98.5657 102.809 98.407 103.094 98.281C103.378 98.1503 103.693 98.085 104.039 98.085ZM110.414 104.168C109.812 104.168 109.276 104.037 108.804 103.776C108.338 103.51 107.971 103.151 107.705 102.698C107.439 102.241 107.306 101.723 107.306 101.144C107.306 100.565 107.439 100.045 107.705 99.583C107.971 99.121 108.338 98.757 108.804 98.491C109.276 98.2203 109.812 98.085 110.414 98.085C111.016 98.085 111.548 98.2203 112.01 98.491C112.472 98.757 112.834 99.121 113.095 99.583C113.361 100.045 113.494 100.565 113.494 101.144C113.494 101.723 113.361 102.241 113.095 102.698C112.834 103.151 112.472 103.51 112.01 103.776C111.548 104.037 111.016 104.168 110.414 104.168ZM110.414 102.908C110.75 102.908 111.042 102.831 111.289 102.677C111.537 102.523 111.728 102.313 111.863 102.047C111.999 101.781 112.066 101.478 112.066 101.137C112.066 100.796 111.999 100.493 111.863 100.227C111.728 99.9563 111.537 99.7417 111.289 99.583C111.042 99.4243 110.75 99.345 110.414 99.345C110.078 99.345 109.784 99.4243 109.532 99.583C109.285 99.7417 109.091 99.9563 108.951 100.227C108.816 100.493 108.748 100.796 108.748 101.137C108.748 101.478 108.816 101.781 108.951 102.047C109.091 102.313 109.285 102.523 109.532 102.677C109.784 102.831 110.078 102.908 110.414 102.908ZM118.321 94.76H120.68C121.665 94.76 122.477 94.9583 123.116 95.355C123.755 95.747 124.231 96.2907 124.544 96.986C124.857 97.6813 125.013 98.477 125.013 99.373C125.013 100.274 124.857 101.072 124.544 101.767C124.236 102.462 123.762 103.008 123.123 103.405C122.484 103.802 121.669 104 120.68 104H118.321V94.76ZM119.784 96.09V102.67H120.554C121.221 102.67 121.767 102.53 122.192 102.25C122.621 101.965 122.939 101.576 123.144 101.081C123.349 100.586 123.454 100.022 123.459 99.387C123.464 98.7523 123.363 98.1877 123.158 97.693C122.953 97.1937 122.633 96.8017 122.199 96.517C121.77 96.2323 121.221 96.09 120.554 96.09H119.784ZM127.451 101.48C127.46 101.783 127.532 102.056 127.668 102.299C127.803 102.542 128.001 102.733 128.263 102.873C128.529 103.008 128.853 103.076 129.236 103.076C129.567 103.076 129.852 103.032 130.09 102.943C130.332 102.85 130.533 102.74 130.692 102.614C130.85 102.483 130.967 102.362 131.042 102.25L131.707 103.153C131.562 103.349 131.38 103.524 131.161 103.678C130.941 103.832 130.668 103.951 130.342 104.035C130.02 104.124 129.621 104.168 129.145 104.168C128.519 104.168 127.976 104.04 127.514 103.783C127.052 103.526 126.692 103.165 126.436 102.698C126.184 102.231 126.058 101.685 126.058 101.06C126.058 100.5 126.174 99.996 126.408 99.548C126.641 99.0953 126.979 98.7383 127.423 98.477C127.871 98.2157 128.407 98.085 129.033 98.085C129.616 98.085 130.122 98.2017 130.552 98.435C130.981 98.6683 131.312 99.0043 131.546 99.443C131.784 99.877 131.903 100.402 131.903 101.018C131.903 101.055 131.9 101.132 131.896 101.249C131.896 101.366 131.891 101.443 131.882 101.48H127.451ZM130.503 100.388C130.498 100.239 130.447 100.068 130.349 99.877C130.255 99.6857 130.104 99.52 129.894 99.38C129.684 99.2353 129.404 99.163 129.054 99.163C128.694 99.163 128.403 99.233 128.179 99.373C127.955 99.5083 127.789 99.6717 127.682 99.863C127.574 100.05 127.511 100.225 127.493 100.388H130.503ZM139.607 94.76H141.112L144.598 104H143.03L142.267 101.886H138.459L137.689 104H136.114L139.607 94.76ZM138.935 100.577H141.791L140.37 96.552H140.349L138.935 100.577ZM139.796 94.368L139.299 93.703L141.483 91.883L142.267 92.877L139.796 94.368ZM148.322 107.073C147.883 107.073 147.475 107.029 147.097 106.94C146.723 106.856 146.39 106.728 146.096 106.555C145.802 106.387 145.564 106.179 145.382 105.932L146.313 105.008C146.411 105.129 146.537 105.255 146.691 105.386C146.845 105.521 147.048 105.633 147.3 105.722C147.552 105.815 147.871 105.862 148.259 105.862C148.637 105.862 148.959 105.785 149.225 105.631C149.495 105.477 149.701 105.265 149.841 104.994C149.985 104.728 150.058 104.42 150.058 104.07V103.895H151.528V104.161C151.528 104.796 151.385 105.328 151.101 105.757C150.816 106.191 150.431 106.518 149.946 106.737C149.46 106.961 148.919 107.073 148.322 107.073ZM150.058 104V102.936C150.02 103.048 149.913 103.202 149.736 103.398C149.563 103.594 149.325 103.771 149.022 103.93C148.723 104.089 148.368 104.168 147.958 104.168C147.421 104.168 146.938 104.04 146.509 103.783C146.079 103.526 145.741 103.169 145.494 102.712C145.246 102.255 145.123 101.727 145.123 101.13C145.123 100.533 145.246 100.005 145.494 99.548C145.741 99.0907 146.079 98.7337 146.509 98.477C146.938 98.2157 147.421 98.085 147.958 98.085C148.359 98.085 148.707 98.155 149.001 98.295C149.295 98.435 149.53 98.596 149.708 98.778C149.89 98.96 150.002 99.1187 150.044 99.254V98.253H151.528V104H150.058ZM146.6 101.13C146.6 101.499 146.681 101.821 146.845 102.096C147.008 102.371 147.22 102.584 147.482 102.733C147.748 102.882 148.032 102.957 148.336 102.957C148.662 102.957 148.952 102.88 149.204 102.726C149.46 102.572 149.661 102.36 149.806 102.089C149.955 101.814 150.03 101.494 150.03 101.13C150.03 100.766 149.955 100.449 149.806 100.178C149.661 99.9027 149.46 99.688 149.204 99.534C148.952 99.3753 148.662 99.296 148.336 99.296C148.032 99.296 147.748 99.373 147.482 99.527C147.22 99.6763 147.008 99.8887 146.845 100.164C146.681 100.439 146.6 100.761 146.6 101.13ZM154.53 101.074C154.53 101.634 154.644 102.08 154.873 102.411C155.106 102.742 155.472 102.908 155.972 102.908C156.476 102.908 156.842 102.742 157.071 102.411C157.299 102.08 157.414 101.634 157.414 101.074V98.253H158.898V101.263C158.898 101.842 158.783 102.35 158.555 102.789C158.326 103.223 157.995 103.561 157.561 103.804C157.127 104.047 156.597 104.168 155.972 104.168C155.351 104.168 154.824 104.047 154.39 103.804C153.956 103.561 153.624 103.223 153.396 102.789C153.167 102.35 153.053 101.842 153.053 101.263V98.253H154.53V101.074ZM165.015 104V102.936C164.977 103.048 164.87 103.202 164.693 103.398C164.52 103.594 164.282 103.771 163.979 103.93C163.68 104.089 163.325 104.168 162.915 104.168C162.378 104.168 161.895 104.04 161.466 103.783C161.036 103.526 160.698 103.169 160.451 102.712C160.203 102.255 160.08 101.727 160.08 101.13C160.08 100.533 160.203 100.005 160.451 99.548C160.698 99.0907 161.036 98.7337 161.466 98.477C161.895 98.2157 162.378 98.085 162.915 98.085C163.316 98.085 163.664 98.155 163.958 98.295C164.252 98.435 164.487 98.596 164.665 98.778C164.847 98.96 164.959 99.1187 165.001 99.254V98.253H166.485V104H165.015ZM161.557 101.13C161.557 101.499 161.638 101.821 161.802 102.096C161.965 102.371 162.177 102.584 162.439 102.733C162.705 102.882 162.989 102.957 163.293 102.957C163.619 102.957 163.909 102.88 164.161 102.726C164.417 102.572 164.618 102.36 164.763 102.089C164.912 101.814 164.987 101.494 164.987 101.13C164.987 100.766 164.912 100.449 164.763 100.178C164.618 99.9027 164.417 99.688 164.161 99.534C163.909 99.3753 163.619 99.296 163.293 99.296C162.989 99.296 162.705 99.373 162.439 99.527C162.177 99.6763 161.965 99.8887 161.802 100.164C161.638 100.439 161.557 100.761 161.557 101.13Z" fill="#BFBFBF"/>
<path d="M15.641 71.12V78.149H17.018V80.498H15.641V83H12.959V80.498H8.063V78.365L12.554 71.12H15.641ZM12.959 78.149V74.567H12.941L10.772 78.149H12.959ZM17.8616 77.069C17.8616 76.037 17.9906 75.137 18.2486 74.369C18.5126 73.595 18.8696 72.953 19.3196 72.443C19.7756 71.927 20.2916 71.543 20.8676 71.291C21.4496 71.033 22.0586 70.904 22.6946 70.904C23.3306 70.904 23.9366 71.033 24.5126 71.291C25.0946 71.543 25.6106 71.927 26.0606 72.443C26.5106 72.953 26.8646 73.595 27.1226 74.369C27.3806 75.137 27.5096 76.037 27.5096 77.069C27.5096 78.167 27.3806 79.106 27.1226 79.886C26.8646 80.666 26.5106 81.302 26.0606 81.794C25.6106 82.28 25.0946 82.64 24.5126 82.874C23.9366 83.102 23.3306 83.216 22.6946 83.216C22.0586 83.216 21.4496 83.102 20.8676 82.874C20.2916 82.64 19.7756 82.28 19.3196 81.794C18.8696 81.302 18.5126 80.666 18.2486 79.886C17.9906 79.106 17.8616 78.167 17.8616 77.069ZM20.5616 77.069C20.5616 77.927 20.6486 78.635 20.8226 79.193C20.9966 79.751 21.2426 80.168 21.5606 80.444C21.8786 80.714 22.2566 80.849 22.6946 80.849C23.1326 80.849 23.5076 80.714 23.8196 80.444C24.1376 80.168 24.3806 79.751 24.5486 79.193C24.7226 78.629 24.8096 77.921 24.8096 77.069C24.8096 76.265 24.7226 75.581 24.5486 75.017C24.3806 74.453 24.1376 74.021 23.8196 73.721C23.5076 73.421 23.1326 73.271 22.6946 73.271C22.2566 73.271 21.8786 73.421 21.5606 73.721C21.2426 74.021 20.9966 74.453 20.8226 75.017C20.6486 75.581 20.5616 76.265 20.5616 77.069ZM28.5315 77.069C28.5315 76.037 28.6605 75.137 28.9185 74.369C29.1825 73.595 29.5395 72.953 29.9895 72.443C30.4455 71.927 30.9615 71.543 31.5375 71.291C32.1195 71.033 32.7285 70.904 33.3645 70.904C34.0005 70.904 34.6065 71.033 35.1825 71.291C35.7645 71.543 36.2805 71.927 36.7305 72.443C37.1805 72.953 37.5345 73.595 37.7925 74.369C38.0505 75.137 38.1795 76.037 38.1795 77.069C38.1795 78.167 38.0505 79.106 37.7925 79.886C37.5345 80.666 37.1805 81.302 36.7305 81.794C36.2805 82.28 35.7645 82.64 35.1825 82.874C34.6065 83.102 34.0005 83.216 33.3645 83.216C32.7285 83.216 32.1195 83.102 31.5375 82.874C30.9615 82.64 30.4455 82.28 29.9895 81.794C29.5395 81.302 29.1825 80.666 28.9185 79.886C28.6605 79.106 28.5315 78.167 28.5315 77.069ZM31.2315 77.069C31.2315 77.927 31.3185 78.635 31.4925 79.193C31.6665 79.751 31.9125 80.168 32.2305 80.444C32.5485 80.714 32.9265 80.849 33.3645 80.849C33.8025 80.849 34.1775 80.714 34.4895 80.444C34.8075 80.168 35.0505 79.751 35.2185 79.193C35.3925 78.629 35.4795 77.921 35.4795 77.069C35.4795 76.265 35.3925 75.581 35.2185 75.017C35.0505 74.453 34.8075 74.021 34.4895 73.721C34.1775 73.421 33.8025 73.271 33.3645 73.271C32.9265 73.271 32.5485 73.421 32.2305 73.721C31.9125 74.021 31.6665 74.453 31.4925 75.017C31.3185 75.581 31.2315 76.265 31.2315 77.069ZM39.2015 77.069C39.2015 76.037 39.3305 75.137 39.5885 74.369C39.8525 73.595 40.2095 72.953 40.6595 72.443C41.1155 71.927 41.6315 71.543 42.2075 71.291C42.7895 71.033 43.3985 70.904 44.0345 70.904C44.6705 70.904 45.2765 71.033 45.8525 71.291C46.4345 71.543 46.9505 71.927 47.4005 72.443C47.8505 72.953 48.2045 73.595 48.4625 74.369C48.7205 75.137 48.8495 76.037 48.8495 77.069C48.8495 78.167 48.7205 79.106 48.4625 79.886C48.2045 80.666 47.8505 81.302 47.4005 81.794C46.9505 82.28 46.4345 82.64 45.8525 82.874C45.2765 83.102 44.6705 83.216 44.0345 83.216C43.3985 83.216 42.7895 83.102 42.2075 82.874C41.6315 82.64 41.1155 82.28 40.6595 81.794C40.2095 81.302 39.8525 80.666 39.5885 79.886C39.3305 79.106 39.2015 78.167 39.2015 77.069ZM41.9015 77.069C41.9015 77.927 41.9885 78.635 42.1625 79.193C42.3365 79.751 42.5825 80.168 42.9005 80.444C43.2185 80.714 43.5965 80.849 44.0345 80.849C44.4725 80.849 44.8475 80.714 45.1595 80.444C45.4775 80.168 45.7205 79.751 45.8885 79.193C46.0625 78.629 46.1495 77.921 46.1495 77.069C46.1495 76.265 46.0625 75.581 45.8885 75.017C45.7205 74.453 45.4775 74.021 45.1595 73.721C44.8475 73.421 44.4725 73.271 44.0345 73.271C43.5965 73.271 43.2185 73.421 42.9005 73.721C42.5825 74.021 42.3365 74.453 42.1625 75.017C41.9885 75.581 41.9015 76.265 41.9015 77.069ZM67.649 71.12V83H64.967V76.007L65.084 74.018L64.625 76.295L62.627 82.046H59.99L58.001 76.295L57.551 74.018L57.668 76.007V83H54.977V71.12H58.757L61.151 79.049L61.313 79.994L61.475 79.049L63.869 71.12H67.649ZM72.5408 83H69.7958V70.616H72.5408V83Z" fill="white"/>
<rect x="4" y="44" width="175" height="5" rx="2" fill="#393C43"/>
<g filter="url(#filter0_d_19_224)">
<rect x="4" y="44" width="141" height="5" rx="2" fill="#419CFF"/>
</g>
<path d="M14.98 28.48C13.2467 28.48 11.6467 28.1467 10.18 27.48C8.71333 26.8133 7.53333 25.8933 6.64 24.72C5.74667 23.5333 5.3 22.18 5.3 20.66C5.3 19.4333 5.5 18.38 5.9 17.5C6.31333 16.62 6.87333 15.88 7.58 15.28C8.3 14.6667 9.09333 14.16 9.96 13.76C9.30667 13.3867 8.70667 12.9533 8.16 12.46C7.62667 11.9533 7.2 11.3467 6.88 10.64C6.57333 9.93333 6.42 9.06667 6.42 8.04C6.42 6.62667 6.80667 5.40666 7.58 4.38C8.35333 3.34 9.38 2.54 10.66 1.98C11.9533 1.40666 13.38 1.12 14.94 1.12C16.5267 1.12 17.9533 1.40666 19.22 1.98C20.5 2.54 21.5067 3.34 22.24 4.38C22.9867 5.40666 23.36 6.62667 23.36 8.04C23.36 9.56 23.0333 10.7533 22.38 11.62C21.7267 12.4733 20.9067 13.1867 19.92 13.76C20.8 14.16 21.5867 14.6667 22.28 15.28C22.9867 15.88 23.5467 16.62 23.96 17.5C24.3867 18.38 24.6 19.4333 24.6 20.66C24.6 22.18 24.1533 23.5333 23.26 24.72C22.38 25.8933 21.2067 26.8133 19.74 27.48C18.2867 28.1467 16.7 28.48 14.98 28.48ZM14.94 23.28C15.58 23.28 16.1533 23.1267 16.66 22.82C17.18 22.5133 17.5933 22.1067 17.9 21.6C18.22 21.08 18.38 20.5067 18.38 19.88C18.38 19.2533 18.22 18.68 17.9 18.16C17.5933 17.64 17.18 17.2333 16.66 16.94C16.1533 16.6333 15.58 16.48 14.94 16.48C14.3 16.48 13.72 16.6333 13.2 16.94C12.6933 17.2467 12.28 17.66 11.96 18.18C11.6533 18.6867 11.5 19.2533 11.5 19.88C11.5 20.5067 11.6533 21.08 11.96 21.6C12.28 22.1067 12.6933 22.5133 13.2 22.82C13.72 23.1267 14.3 23.28 14.94 23.28ZM14.96 11.88C15.52 11.88 16.0267 11.7467 16.48 11.48C16.9467 11.2 17.32 10.8267 17.6 10.36C17.88 9.88 18.02 9.36 18.02 8.8C18.02 8.24 17.88 7.73333 17.6 7.28C17.32 6.81333 16.9467 6.44 16.48 6.16C16.0267 5.88 15.52 5.74 14.96 5.74C14.4 5.74 13.8867 5.88 13.42 6.16C12.9533 6.44 12.58 6.81333 12.3 7.28C12.02 7.73333 11.88 8.24 11.88 8.8C11.88 9.36 12.02 9.87333 12.3 10.34C12.58 10.8067 12.9533 11.18 13.42 11.46C13.8867 11.74 14.4 11.88 14.96 11.88ZM37.4019 28.48C35.6685 28.48 34.0685 28.1467 32.6019 27.48C31.1352 26.8133 29.9552 25.8933 29.0619 24.72C28.1685 23.5333 27.7219 22.18 27.7219 20.66C27.7219 19.4333 27.9219 18.38 28.3219 17.5C28.7352 16.62 29.2952 15.88 30.0019 15.28C30.7219 14.6667 31.5152 14.16 32.3819 13.76C31.7285 13.3867 31.1285 12.9533 30.5819 12.46C30.0485 11.9533 29.6219 11.3467 29.3019 10.64C28.9952 9.93333 28.8419 9.06667 28.8419 8.04C28.8419 6.62667 29.2285 5.40666 30.0019 4.38C30.7752 3.34 31.8019 2.54 33.0819 1.98C34.3752 1.40666 35.8019 1.12 37.3619 1.12C38.9485 1.12 40.3752 1.40666 41.6419 1.98C42.9219 2.54 43.9285 3.34 44.6619 4.38C45.4085 5.40666 45.7819 6.62667 45.7819 8.04C45.7819 9.56 45.4552 10.7533 44.8019 11.62C44.1485 12.4733 43.3285 13.1867 42.3419 13.76C43.2219 14.16 44.0085 14.6667 44.7019 15.28C45.4085 15.88 45.9685 16.62 46.3819 17.5C46.8085 18.38 47.0219 19.4333 47.0219 20.66C47.0219 22.18 46.5752 23.5333 45.6819 24.72C44.8019 25.8933 43.6285 26.8133 42.1619 27.48C40.7085 28.1467 39.1219 28.48 37.4019 28.48ZM37.3619 23.28C38.0019 23.28 38.5752 23.1267 39.0819 22.82C39.6019 22.5133 40.0152 22.1067 40.3219 21.6C40.6419 21.08 40.8019 20.5067 40.8019 19.88C40.8019 19.2533 40.6419 18.68 40.3219 18.16C40.0152 17.64 39.6019 17.2333 39.0819 16.94C38.5752 16.6333 38.0019 16.48 37.3619 16.48C36.7219 16.48 36.1419 16.6333 35.6219 16.94C35.1152 17.2467 34.7019 17.66 34.3819 18.18C34.0752 18.6867 33.9219 19.2533 33.9219 19.88C33.9219 20.5067 34.0752 21.08 34.3819 21.6C34.7019 22.1067 35.1152 22.5133 35.6219 22.82C36.1419 23.1267 36.7219 23.28 37.3619 23.28ZM37.3819 11.88C37.9419 11.88 38.4485 11.7467 38.9019 11.48C39.3685 11.2 39.7419 10.8267 40.0219 10.36C40.3019 9.88 40.4419 9.36 40.4419 8.8C40.4419 8.24 40.3019 7.73333 40.0219 7.28C39.7419 6.81333 39.3685 6.44 38.9019 6.16C38.4485 5.88 37.9419 5.74 37.3819 5.74C36.8219 5.74 36.3085 5.88 35.8419 6.16C35.3752 6.44 35.0019 6.81333 34.7219 7.28C34.4419 7.73333 34.3019 8.24 34.3019 8.8C34.3019 9.36 34.4419 9.87333 34.7219 10.34C35.0019 10.8067 35.3752 11.18 35.8419 11.46C36.3085 11.74 36.8219 11.88 37.3819 11.88Z" fill="white"/>
<defs>
<filter id="filter0_d_19_224" x="0" y="44" width="149" height="13" filterUnits="userSpaceOnUse" color-interpolation-filters="sRGB">
<feFlood flood-opacity="0" result="BackgroundImageFix"/>
<feColorMatrix in="SourceAlpha" type="matrix" values="0 0 0 0 0 0 0 0 0 0 0 0 0 0 0 0 0 0 127 0" result="hardAlpha"/>
<feOffset dy="4"/>
<feGaussianBlur stdDeviation="2"/>
<feComposite in2="hardAlpha" operator="out"/>
<feColorMatrix type="matrix" values="0 0 0 0 0 0 0 0 0 0.478431 0 0 0 0 1 0 0 0 0.2 0"/>
<feBlend mode="normal" in2="BackgroundImageFix" result="effect1_dropShadow_19_224"/>
<feBlend mode="normal" in="SourceGraphic" in2="effect1_dropShadow_19_224" result="shape"/>
</filter>
<clipPath id="clip0_19_224">
<rect width="14" height="21" fill="white" transform="translate(161 5)"/>
</clipPath>
</defs>
</svg>
